<svg width="58" height="58" viewBox="0 0 58 58" fill="none" xmlns="http://www.w3.org/2000/svg">
<path d="M54.5336 27.5959L48.9375 30.3826L41.6875 16.517L47.3516 13.685C47.7725 13.4704 48.2612 13.431 48.7111 13.5753C49.161 13.7196 49.5355 14.0359 49.7531 14.4553L55.3266 25.1264C55.4396 25.34 55.5087 25.574 55.53 25.8148C55.5512 26.0555 55.5241 26.2981 55.4502 26.5281C55.3763 26.7582 55.2572 26.9712 55.0998 27.1546C54.9423 27.338 54.7498 27.488 54.5336 27.5959V27.5959Z" stroke="#A3C987" stroke-width="1.2" stroke-linecap="round" stroke-linejoin="round"/>
<path d="M9.06211 30.1553L3.46602 27.3459C3.25055 27.2403 3.05851 27.0924 2.90133 26.9111C2.74414 26.7298 2.62502 26.5188 2.55105 26.2905C2.47707 26.0622 2.44975 25.8214 2.47071 25.5824C2.49167 25.3433 2.56048 25.1109 2.67305 24.899L8.24649 14.2279C8.46452 13.8089 8.83754 13.4915 9.28611 13.3433C9.73468 13.1952 10.2234 13.2281 10.6481 13.435L16.3121 16.267L9.06211 30.1553Z" stroke="#A3C987" stroke-width="1.2" stroke-linecap="round" stroke-linejoin="round"/>
<path d="M48.9375 30.3818L45.3125 34.6412L36.975 42.9787C36.7478 43.1912 36.4724 43.3455 36.1726 43.4283C35.8727 43.5112 35.5572 43.5202 35.2531 43.4545L22.1125 40.1693C21.8725 40.1024 21.6488 39.9867 21.4555 39.8295L9.0625 30.1553" stroke="#A3C987" stroke-width="1.2" stroke-linecap="round" stroke-linejoin="round"/>
<path d="M45.3132 34.6416L35.3444 27.3916L32.4444 29.5666C31.188 30.5043 29.6622 31.011 28.0944 31.011C26.5267 31.011 25.0009 30.5043 23.7444 29.5666L22.521 28.6377C22.3141 28.4804 22.143 28.281 22.019 28.0526C21.8949 27.8242 21.8208 27.5721 21.8016 27.3129C21.7823 27.0538 21.8183 26.7935 21.9072 26.5492C21.996 26.305 22.1358 26.0825 22.3171 25.8963L31.1983 17.0377C31.3652 16.8717 31.5631 16.7402 31.7808 16.6508C31.9985 16.5614 32.2317 16.5158 32.4671 16.5166H41.6882" stroke="#A3C987" stroke-width="1.2" stroke-linecap="round" stroke-linejoin="round"/>
<path d="M16.448 16.2675L28.0707 12.8691C28.4836 12.7506 28.9253 12.7827 29.3167 12.9597L37.1558 16.5167" stroke="#A3C987" stroke-width="1.2" stroke-linecap="round" stroke-linejoin="round"/>
<path d="M25.375 48.2352L18.5555 46.5133C18.2776 46.4505 18.0203 46.3179 17.8078 46.1281L12.6875 41.6875" stroke="#A3C987" stroke-width="1.2" stroke-linecap="round" stroke-linejoin="round"/>
</svg>
