<svg width="52" height="52" viewBox="0 0 52 52" fill="none" xmlns="http://www.w3.org/2000/svg">
<path d="M9.1603 39.8126C9.21228 40.0262 9.30654 40.2273 9.43753 40.4039C9.56851 40.5804 9.73355 40.729 9.92291 40.8407C10.1123 40.9524 10.3221 41.025 10.54 41.0543C10.7579 41.0836 10.9794 41.0689 11.1916 41.0111C20.8745 38.3299 31.1039 38.3299 40.7869 41.0111C40.999 41.0689 41.2205 41.0836 41.4384 41.0543C41.6563 41.025 41.8662 40.9524 42.0555 40.8407C42.2449 40.729 42.4099 40.5804 42.5409 40.4039C42.6719 40.2273 42.7661 40.0262 42.8181 39.8126L47.9978 17.8142C48.0689 17.5197 48.0563 17.2113 47.9614 16.9236C47.8665 16.6359 47.6931 16.3805 47.4607 16.1862C47.2284 15.9918 46.9463 15.8663 46.6464 15.8238C46.3465 15.7812 46.0407 15.8234 45.7634 15.9454L35.4853 20.5157C35.1129 20.6797 34.6929 20.6999 34.3065 20.5723C33.9201 20.4448 33.5947 20.1786 33.3931 19.8251L27.4212 9.05949C27.2807 8.8055 27.0747 8.59379 26.8247 8.44637C26.5746 8.29894 26.2896 8.22119 25.9994 8.22119C25.7091 8.22119 25.4241 8.29894 25.1741 8.44637C24.924 8.59379 24.718 8.8055 24.5775 9.05949L18.6056 19.8251C18.404 20.1786 18.0786 20.4448 17.6922 20.5723C17.3058 20.6999 16.8858 20.6797 16.5134 20.5157L6.2353 15.9454C5.95806 15.8234 5.65223 15.7812 5.35231 15.8238C5.0524 15.8663 4.77034 15.9918 4.53798 16.1862C4.30562 16.3805 4.1322 16.6359 4.0373 16.9236C3.94241 17.2113 3.92981 17.5197 4.00093 17.8142L9.1603 39.8126Z" stroke="#A3C987" stroke-width="1.2" stroke-linecap="round" stroke-linejoin="round"/>
</svg>
