<svg width="49" height="49" viewBox="0 0 49 49" fill="none" xmlns="http://www.w3.org/2000/svg">
<path d="M15.3125 38.2812C18.6952 38.2812 21.4375 35.539 21.4375 32.1562C21.4375 28.7735 18.6952 26.0312 15.3125 26.0312C11.9298 26.0312 9.1875 28.7735 9.1875 32.1562C9.1875 35.539 11.9298 38.2812 15.3125 38.2812Z" stroke="#A3C987" stroke-width="1.2" stroke-linecap="round" stroke-linejoin="round"/>
<path d="M6.125 42.875C7.19474 41.4487 8.58186 40.291 10.1765 39.4937C11.7712 38.6964 13.5296 38.2813 15.3125 38.2812C17.0954 38.2813 18.8538 38.6964 20.4485 39.4937C22.0431 40.291 23.4303 41.4487 24.5 42.875" stroke="#A3C987" stroke-width="1.2" stroke-linecap="round" stroke-linejoin="round"/>
<path d="M15.3125 18.375C18.6952 18.375 21.4375 15.6327 21.4375 12.25C21.4375 8.86726 18.6952 6.125 15.3125 6.125C11.9298 6.125 9.1875 8.86726 9.1875 12.25C9.1875 15.6327 11.9298 18.375 15.3125 18.375Z" stroke="#A3C987" stroke-width="1.2" stroke-linecap="round" stroke-linejoin="round"/>
<path d="M6.125 22.9688C7.19474 21.5424 8.58186 20.3848 10.1765 19.5874C11.7712 18.7901 13.5296 18.375 15.3125 18.375C17.0954 18.375 18.8538 18.7901 20.4485 19.5874C22.0431 20.3848 23.4303 21.5424 24.5 22.9688" stroke="#A3C987" stroke-width="1.2" stroke-linecap="round" stroke-linejoin="round"/>
<path d="M33.6875 38.2812C37.0702 38.2812 39.8125 35.539 39.8125 32.1562C39.8125 28.7735 37.0702 26.0312 33.6875 26.0312C30.3048 26.0312 27.5625 28.7735 27.5625 32.1562C27.5625 35.539 30.3048 38.2812 33.6875 38.2812Z" stroke="#A3C987" stroke-width="1.2" stroke-linecap="round" stroke-linejoin="round"/>
<path d="M24.5 42.875C25.5697 41.4487 26.9569 40.291 28.5515 39.4937C30.1462 38.6964 31.9046 38.2812 33.6875 38.2812C35.4704 38.2812 37.2288 38.6964 38.8235 39.4937C40.4181 40.291 41.8053 41.4487 42.875 42.875" stroke="#A3C987" stroke-width="1.2" stroke-linecap="round" stroke-linejoin="round"/>
<path d="M33.6875 18.375C37.0702 18.375 39.8125 15.6327 39.8125 12.25C39.8125 8.86726 37.0702 6.125 33.6875 6.125C30.3048 6.125 27.5625 8.86726 27.5625 12.25C27.5625 15.6327 30.3048 18.375 33.6875 18.375Z" stroke="#A3C987" stroke-width="1.2" stroke-linecap="round" stroke-linejoin="round"/>
<path d="M24.5 22.9688C25.5697 21.5424 26.9569 20.3848 28.5515 19.5874C30.1462 18.7901 31.9046 18.375 33.6875 18.375C35.4704 18.375 37.2288 18.7901 38.8235 19.5874C40.4181 20.3848 41.8053 21.5424 42.875 22.9688" stroke="#A3C987" stroke-width="1.2" stroke-linecap="round" stroke-linejoin="round"/>
</svg>
