<svg width="56" height="56" viewBox="0 0 56 56" fill="none" xmlns="http://www.w3.org/2000/svg">
<path d="M12.25 12.25V24.3031C12.25 32.9875 19.2062 40.1844 27.8906 40.25C29.9681 40.2644 32.028 39.8677 33.9515 39.0826C35.875 38.2976 37.6242 37.1397 39.0983 35.6758C40.5725 34.2118 41.7424 32.4707 42.5407 30.5526C43.3391 28.6346 43.7501 26.5776 43.75 24.5V12.25C43.75 11.7859 43.5656 11.3408 43.2374 11.0126C42.9092 10.6844 42.4641 10.5 42 10.5H14C13.5359 10.5 13.0908 10.6844 12.7626 11.0126C12.4344 11.3408 12.25 11.7859 12.25 12.25Z" stroke="#A3C987" stroke-width="1.2" stroke-linecap="round" stroke-linejoin="round"/>
<path d="M21 49H35" stroke="#A3C987" stroke-width="1.2" stroke-linecap="round" stroke-linejoin="round"/>
<path d="M28 40.25V49" stroke="#A3C987" stroke-width="1.2" stroke-linecap="round" stroke-linejoin="round"/>
<path d="M43.3555 28H45.4992C47.3557 28 49.1362 27.2625 50.449 25.9497C51.7617 24.637 52.4992 22.8565 52.4992 21V17.5C52.4992 17.0359 52.3148 16.5908 51.9867 16.2626C51.6585 15.9344 51.2133 15.75 50.7492 15.75H43.7492" stroke="#A3C987" stroke-width="1.2" stroke-linecap="round" stroke-linejoin="round"/>
<path d="M12.6879 28H10.4785C8.622 28 6.84152 27.2625 5.52877 25.9497C4.21601 24.637 3.47852 22.8565 3.47852 21V17.5C3.47852 17.0359 3.66289 16.5908 3.99108 16.2626C4.31927 15.9344 4.76439 15.75 5.22852 15.75H12.2285" stroke="#A3C987" stroke-width="1.2" stroke-linecap="round" stroke-linejoin="round"/>
</svg>
