<svg width="44" height="45" viewBox="0 0 44 45" fill="none" xmlns="http://www.w3.org/2000/svg">
<path d="M33.8211 9.90109L26.5893 7.11963" stroke="#A3C987" stroke-width="1.2"/>
<path d="M18.245 9.34424L9.34432 19.3575" stroke="#A3C987" stroke-width="1.2"/>
<path d="M9.06617 26.5894L18.245 35.2119" stroke="#A3C987" stroke-width="1.2"/>
<path d="M35.4901 16.5762L24.9205 34.9338" stroke="#A3C987" stroke-width="1.2"/>
<path d="M33.8211 33.543L26.8675 37.1589" stroke="#A3C987" stroke-width="1.2"/>
<path d="M36.3243 26.8678L24.6421 9.90088" stroke="#A3C987" stroke-width="1.2"/>
<path d="M33.543 14.3511L25.4768 18.8014" stroke="#A3C987" stroke-width="1.2"/>
<path d="M17.9669 21.3047L10.7351 21.861" stroke="#A3C987" stroke-width="1.2"/>
<path d="M21.8607 24.6421V33.5428" stroke="#A3C987" stroke-width="1.2"/>
<path d="M21.8609 10.7351C19.0958 10.7351 16.8542 8.55584 16.8542 5.86756C16.8542 3.17928 19.0958 1 21.8609 1C24.6259 1 26.8675 3.17928 26.8675 5.86756C26.8675 8.55584 24.6259 10.7351 21.8609 10.7351Z" stroke="#A3C987" stroke-width="1.2"/>
<path d="M5.86761 27.7019C3.17933 27.7019 1.00005 25.5226 1.00005 22.8344C1.00005 20.1461 3.17933 17.9668 5.86761 17.9668C8.55589 17.9668 10.7352 20.1461 10.7352 22.8344C10.7352 25.5226 8.55589 27.7019 5.86761 27.7019Z" stroke="#A3C987" stroke-width="1.2"/>
<path d="M21.8609 43.5564C19.0958 43.5564 16.8542 41.3771 16.8542 38.6888C16.8542 36.0006 19.0958 33.8213 21.8609 33.8213C24.6259 33.8213 26.8675 36.0006 26.8675 38.6888C26.8675 41.3771 24.6259 43.5564 21.8609 43.5564Z" stroke="#A3C987" stroke-width="1.2"/>
<path d="M38.1324 36.3245C35.4442 36.3245 33.2649 34.1452 33.2649 31.4569C33.2649 28.7686 35.4442 26.5894 38.1324 26.5894C40.8207 26.5894 43 28.7686 43 31.4569C43 34.1452 40.8207 36.3245 38.1324 36.3245Z" stroke="#A3C987" stroke-width="1.2"/>
<path d="M38.1324 17.1323C35.4442 17.1323 33.2649 15.0152 33.2649 12.4038C33.2649 9.79231 35.4442 7.67529 38.1324 7.67529C40.8207 7.67529 43 9.79231 43 12.4038C43 15.0152 40.8207 17.1323 38.1324 17.1323Z" stroke="#A3C987" stroke-width="1.2"/>
<path d="M21.8609 24.6421C19.7103 24.6421 17.9669 22.8987 17.9669 20.7481C17.9669 18.5974 19.7103 16.854 21.8609 16.854C24.0115 16.854 25.7549 18.5974 25.7549 20.7481C25.7549 22.8987 24.0115 24.6421 21.8609 24.6421Z" stroke="#A3C987" stroke-width="1.2"/>
</svg>
