<svg width="32" height="32" viewBox="0 0 32 32" fill="none" xmlns="http://www.w3.org/2000/svg">
<g clip-path="url(#clip0_1305_6479)">
<path d="M24.1774 8.59122C22.5349 7.83715 20.8009 7.30219 19.0197 7C18.776 7.43692 18.5554 7.88646 18.359 8.34672C16.4617 8.06003 14.5323 8.06003 12.635 8.34672C12.4385 7.8865 12.218 7.43697 11.9743 7C10.192 7.30474 8.45689 7.84097 6.81271 8.59516C3.54859 13.4378 2.66374 18.1602 3.10616 22.8156C5.01771 24.2318 7.15728 25.3089 9.43187 26C9.94404 25.3092 10.3972 24.5764 10.7867 23.8094C10.047 23.5323 9.33309 23.1906 8.6532 22.788C8.83213 22.6578 9.00714 22.5238 9.17624 22.3936C11.1546 23.3266 13.3138 23.8103 15.5 23.8103C17.6862 23.8103 19.8454 23.3266 21.8237 22.3936C21.9948 22.5336 22.1698 22.6677 22.3468 22.788C21.6656 23.1912 20.9503 23.5336 20.2094 23.8113C20.5983 24.5781 21.0515 25.3102 21.5642 26C23.8407 25.3117 25.9819 24.2351 27.8938 22.8176C28.4129 17.4188 27.007 12.7398 24.1774 8.59122ZM11.3471 19.9526C10.1142 19.9526 9.09562 18.8306 9.09562 17.4504C9.09562 16.0702 10.0788 14.9384 11.3431 14.9384C12.6075 14.9384 13.6182 16.0702 13.5966 17.4504C13.5749 18.8306 12.6036 19.9526 11.3471 19.9526ZM19.6529 19.9526C18.418 19.9526 17.4034 18.8306 17.4034 17.4504C17.4034 16.0702 18.3866 14.9384 19.6529 14.9384C20.9192 14.9384 21.922 16.0702 21.9004 17.4504C21.8788 18.8306 20.9094 19.9526 19.6529 19.9526Z" fill="white"/>
</g>
<defs>
<clipPath id="clip0_1305_6479">
<rect width="25" height="19" fill="white" transform="translate(3 7)"/>
</clipPath>
</defs>
</svg>
