<svg width="32" height="32" viewBox="0 0 32 32" fill="none" xmlns="http://www.w3.org/2000/svg">
<path d="M26.1613 6.2635C26.1613 6.2635 28.4277 5.37975 28.2388 7.526C28.1759 8.40976 27.6093 11.5029 27.1686 14.8485L25.6576 24.7592C25.6576 24.7592 25.5317 26.211 24.3985 26.4636C23.2652 26.716 21.5655 25.5798 21.2506 25.3273C20.9988 25.1379 16.529 22.2973 14.955 20.9085C14.5143 20.5298 14.0107 19.7723 15.018 18.8885L21.6284 12.576C22.3839 11.8185 23.1394 10.051 19.9915 12.1973L11.1776 18.1942C11.1776 18.1942 10.1703 18.8254 8.28168 18.2573L4.1895 16.9948C4.1895 16.9948 2.67854 16.0479 5.25975 15.101C11.5554 12.1341 19.299 9.1041 26.1613 6.2635Z" fill="white"/>
</svg>
