<svg width="17" height="17" viewBox="0 0 17 17" fill="none" xmlns="http://www.w3.org/2000/svg">
<path d="M15.984 8.08844L14.3437 8.90524L12.2188 4.84118L13.8789 4.01111C14.0023 3.94821 14.1455 3.93666 14.2774 3.97896C14.4093 4.02125 14.519 4.11396 14.5828 4.23689L16.2164 7.36463C16.2495 7.42723 16.2698 7.49582 16.276 7.5664C16.2822 7.63695 16.2743 7.70805 16.2526 7.77547C16.231 7.84291 16.1961 7.90534 16.1499 7.9591C16.1038 8.01285 16.0474 8.05682 15.984 8.08844Z" stroke="#85A8BE" stroke-linecap="round" stroke-linejoin="round"/>
<path d="M2.65614 8.83862L1.0159 8.01518C0.952747 7.98423 0.896459 7.94088 0.850389 7.88774C0.804316 7.8346 0.769402 7.77275 0.747721 7.70584C0.726037 7.63892 0.71803 7.56834 0.724173 7.49829C0.730317 7.42821 0.750485 7.36009 0.78348 7.29798L2.41707 4.17025C2.48098 4.04744 2.59031 3.9544 2.72179 3.91097C2.85327 3.86756 2.99651 3.8772 3.12099 3.93784L4.78113 4.76791L2.65614 8.83862Z" stroke="#85A8BE" stroke-linecap="round" stroke-linejoin="round"/>
<path d="M14.3438 8.90501L13.2813 10.1535L10.8375 12.5972C10.7709 12.6595 10.6902 12.7047 10.6023 12.729C10.5144 12.7533 10.4219 12.7559 10.3328 12.7367L6.48125 11.7738C6.41091 11.7542 6.34534 11.7202 6.28868 11.6742L2.65625 8.83862" stroke="#85A8BE" stroke-linecap="round" stroke-linejoin="round"/>
<path d="M13.2815 10.1536L10.3596 8.02857L9.5096 8.66607C9.14134 8.94091 8.69413 9.08943 8.2346 9.08943C7.7751 9.08943 7.32788 8.94091 6.9596 8.66607L6.60102 8.3938C6.54037 8.3477 6.49022 8.28925 6.45388 8.22231C6.4175 8.15536 6.39578 8.08147 6.39016 8.0055C6.3845 7.92956 6.39505 7.85326 6.42111 7.78166C6.44714 7.71008 6.48811 7.64487 6.54125 7.59029L9.14436 4.9938C9.19328 4.94515 9.25129 4.90661 9.31509 4.8804C9.3789 4.8542 9.44725 4.84083 9.51625 4.84107H12.219" stroke="#85A8BE" stroke-linecap="round" stroke-linejoin="round"/>
<path d="M4.8208 4.76806L8.22745 3.77197C8.34848 3.73724 8.47794 3.74665 8.59266 3.79853L10.8903 4.8411" stroke="#85A8BE" stroke-linecap="round" stroke-linejoin="round"/>
<path d="M7.4375 14.1379L5.43868 13.6332C5.35723 13.6148 5.28181 13.5759 5.21953 13.5203L3.71875 12.2188" stroke="#85A8BE" stroke-linecap="round" stroke-linejoin="round"/>
</svg>
