<svg width="20" height="20" viewBox="0 0 20 20" fill="none" xmlns="http://www.w3.org/2000/svg">
<path d="M10 8.125V11.25" stroke="#B95757" stroke-width="1.5" stroke-linecap="round" stroke-linejoin="round"/>
<path d="M8.92162 3.12483L2.04662 14.9998C1.9371 15.1895 1.87934 15.4047 1.87915 15.6237C1.87896 15.8428 1.93633 16.058 2.04552 16.2479C2.15471 16.4378 2.31188 16.5957 2.50129 16.7057C2.6907 16.8157 2.9057 16.8741 3.12475 16.8748H16.8747C17.0938 16.8741 17.3088 16.8157 17.4982 16.7057C17.6876 16.5957 17.8448 16.4378 17.954 16.2479C18.0632 16.058 18.1205 15.8428 18.1203 15.6237C18.1202 15.4047 18.0624 15.1895 17.9529 14.9998L11.0779 3.12483C10.9692 2.93488 10.8122 2.77703 10.6229 2.66724C10.4336 2.55745 10.2186 2.49963 9.99975 2.49963C9.7809 2.49963 9.56593 2.55745 9.37661 2.66724C9.18728 2.77703 9.03033 2.93488 8.92162 3.12483V3.12483Z" stroke="#B95757" stroke-width="1.5" stroke-linecap="round" stroke-linejoin="round"/>
<path d="M10 15C10.5178 15 10.9375 14.5803 10.9375 14.0625C10.9375 13.5447 10.5178 13.125 10 13.125C9.48223 13.125 9.0625 13.5447 9.0625 14.0625C9.0625 14.5803 9.48223 15 10 15Z" fill="#B95757"/>
</svg>