<svg width="841" height="841" viewBox="0 0 841 841" fill="none" xmlns="http://www.w3.org/2000/svg">
<circle cx="420.5" cy="420.5" r="415.5" stroke="url(#paint0_linear_471_1788)" stroke-width="10"/>
<path d="M666 636C666 652.569 652.569 666 636 666L206 666C189.431 666 176 652.568 176 636L176 421L666 421L666 636Z" fill="white"/>
<rect x="181" y="181.064" width="480" height="480" rx="25" stroke="#060606" stroke-width="10"/>
<path d="M176 206C176 189.431 189.431 176 206 176H636C652.569 176 666 189.431 666 206V421H176V206Z" fill="#060606"/>
<path d="M231 260.78C234.96 257.78 237.9 256.04 239.82 255.56C242.58 254.84 247.38 254.3 254.22 253.94C257.58 253.82 261.72 253.64 266.64 253.4C272.4 253.16 276.12 252.92 277.8 252.68C279.48 252.32 280.32 251.54 280.32 250.34C280.32 249.74 280.14 248.96 279.78 248C279.42 246.92 278.88 245.42 278.16 243.5C277.44 241.46 276.78 239.6 276.18 237.92L274.2 234.14L277.26 232.88C279.54 231.44 282.36 230.72 285.72 230.72C291.12 230.72 296.34 232.46 301.38 235.94C306.54 239.42 309.12 242.96 309.12 246.56V247.46C308.76 247.58 308.58 247.82 308.58 248.18C308.58 249.02 311.28 249.44 316.68 249.44C323.76 249.44 327.3 249.32 327.3 249.08L328.38 243.86C328.38 242.9 328.32 241.34 328.2 239.18C328.2 237.02 328.2 235.4 328.2 234.32C328.2 229.4 328.5 226.94 329.1 226.94C329.22 226.94 329.4 227.06 329.64 227.3C332.64 226.46 335.76 226.04 339 226.04C344.52 226.04 348.96 227.48 352.32 230.36C355.68 233.24 357.36 237.32 357.36 242.6C357.36 243.32 357.24 244.64 357 246.56C356.88 246.8 356.82 247.1 356.82 247.46C356.82 248.42 357.96 249.14 360.24 249.62C362.52 249.98 364.98 250.34 367.62 250.7C370.26 251.06 371.82 251.6 372.3 252.32C374.46 252.32 375.54 253.7 375.54 256.46C375.54 258.02 375.12 260.3 374.28 263.3C374.16 264.14 371.04 264.74 364.92 265.1C358.92 265.34 355.86 266.12 355.74 267.44C354.9 282.68 352.92 295.46 349.8 305.78H351.78C353.34 305.78 357.72 305.6 364.92 305.24C372.24 304.88 377.7 304.7 381.3 304.7C388.5 304.7 391.86 305.36 391.38 306.68C391.5 306.56 391.68 306.5 391.92 306.5C392.64 306.5 393.24 307.16 393.72 308.48C394.32 309.8 394.62 311.18 394.62 312.62C394.62 314.9 393.96 316.04 392.64 316.04H392.28C385.92 319.16 379.74 321.2 373.74 322.16C367.74 323 359.28 323.42 348.36 323.42C345.6 323.42 339.9 323.42 331.26 323.42C322.62 323.3 315.24 323.24 309.12 323.24C300.36 323.24 291.36 323.3 282.12 323.42C272.88 323.42 267.6 323.42 266.28 323.42C263.52 323.42 261.42 323.42 259.98 323.42C258.54 323.3 257.1 323.12 255.66 322.88C254.22 322.52 253.26 322.28 252.78 322.16C252.3 321.92 251.1 321.38 249.18 320.54C247.38 319.7 245.82 318.98 244.5 318.38C243.18 317.78 241.86 316.76 240.54 315.32C239.34 313.88 238.74 312.62 238.74 311.54C240.66 310.82 242.58 309.98 244.5 309.02C246.54 308.06 248.7 307.46 250.98 307.22C253.26 306.98 259.2 306.8 268.8 306.68C270.36 306.68 271.56 306.68 272.4 306.68C285.84 306.56 292.56 306.26 292.56 305.78C292.56 305.54 292.14 305.12 291.3 304.52C290.58 303.92 289.68 303.02 288.6 301.82C287.52 300.62 286.74 299.24 286.26 297.68C285.3 294.56 284.52 289.64 283.92 282.92C283.32 276.08 282.78 271.64 282.3 269.6C269.7 270.32 261.9 270.68 258.9 270.68C242.1 270.68 232.8 267.38 231 260.78ZM255.48 370.58C255.48 367.58 257.04 363.56 260.16 358.52C263.4 353.48 267 348.38 270.96 343.22C274.92 338.06 277.32 334.64 278.16 332.96C281.76 330.44 286.38 329.18 292.02 329.18C297.3 329.18 301.08 330.5 303.36 333.14C305.4 334.22 306.42 335.96 306.42 338.36C306.42 339.08 306.24 339.62 305.88 339.98C304.32 341.54 301.38 344.78 297.06 349.7C292.86 354.5 289.2 358.52 286.08 361.76C283.08 364.88 279.3 367.88 274.74 370.76C270.3 373.64 266.1 375.08 262.14 375.08C259.98 375.08 258.12 374.78 256.56 374.18C255.84 373.34 255.48 372.14 255.48 370.58ZM296.7 305.96C296.7 306.44 303.12 306.68 315.96 306.68H335.04L333.06 303.44C331.5 302.6 330.3 299.9 329.46 295.34C328.74 290.78 328.2 285.14 327.84 278.42C327.6 271.7 327.42 267.68 327.3 266.36C326.46 266 324.78 265.82 322.26 265.82C320.7 265.82 319.08 265.94 317.4 266.18C315.72 266.3 314.34 266.48 313.26 266.72C312.18 266.84 311.64 266.96 311.64 267.08H311.82C301.74 285.44 296.7 298.4 296.7 305.96ZM337.2 341.06C337.2 339.14 338.22 337.58 340.26 336.38C342.3 335.06 345.12 334.4 348.72 334.4C357 334.4 364.68 337.34 371.76 343.22C378.96 349.1 384.3 355.46 387.78 362.3V363.74C387.78 368.54 385.2 370.94 380.04 370.94C375.72 370.94 370.68 369.44 364.92 366.44C359.16 363.44 354.78 360.14 351.78 356.54C349.14 353.18 346.08 350.42 342.6 348.26C339 346.1 337.2 343.7 337.2 341.06Z" fill="white"/>
<path d="M450.6 235.4L452.58 233.78C455.58 231.14 458.7 229.82 461.94 229.82C463.5 229.82 466.92 230.48 472.2 231.8C477.6 233.12 482.46 233.78 486.78 233.78C535.02 233.78 569.04 232.94 588.84 231.26L601.44 230.72L604.86 232.88C606.42 233.84 607.38 234.5 607.74 234.86C608.22 235.22 608.76 236.12 609.36 237.56C609.96 238.88 610.26 240.62 610.26 242.78C610.38 244.82 610.44 248 610.44 252.32C610.44 257.48 610.38 265.64 610.26 276.8C610.26 287.96 610.26 295.76 610.26 300.2C610.26 307.4 610.26 317.72 610.26 331.16C610.38 344.6 610.44 354.98 610.44 362.3C610.44 365.3 610.26 367.52 609.9 368.96C609.54 370.4 609.12 371.3 608.64 371.66C608.16 371.9 607.2 372.32 605.76 372.92C604.32 373.4 603 374 601.8 374.72H600.18C595.02 374.72 587.94 373.1 578.94 369.86C570.06 366.62 564 364.7 560.76 364.1C559.32 363.74 558.6 363.38 558.6 363.02C558.6 362.66 558.9 362.3 559.5 361.94C560.22 361.46 560.94 361.1 561.66 360.86C562.5 360.5 563.22 360.2 563.82 359.96C564.42 359.6 564.72 359.36 564.72 359.24C565.2 358.28 569.88 357.68 578.76 357.44L585.24 357.26L585.42 352.22C585.18 349.7 584.88 346.88 584.52 343.76C584.16 340.52 583.92 338.36 583.8 337.28C583.68 336.08 583.56 334.1 583.44 331.34C583.32 328.58 583.2 325.52 583.08 322.16C583.08 318.8 583.08 314.3 583.08 308.66V248.54L561.12 248.9C540.96 249.14 525.96 249.26 516.12 249.26C498.48 249.26 487.8 249.08 484.08 248.72L477.42 248.18L477.96 252.14C479.4 277.46 480.12 301.88 480.12 325.4V344.12C480.12 346.4 479.88 348.44 479.4 350.24C479.04 352.04 478.62 353.36 478.14 354.2C477.78 354.92 477 356.06 475.8 357.62C474.6 359.18 473.82 360.26 473.46 360.86C473.7 362.18 472.32 364.1 469.32 366.62C466.32 369.14 463.56 370.4 461.04 370.4C460.2 370.4 459.48 370.22 458.88 369.86C456.48 362.78 454.68 354.74 453.48 345.74C452.4 336.74 451.8 328.82 451.68 321.98C451.56 315.02 451.44 305.54 451.32 293.54C451.32 281.42 451.2 271.64 450.96 264.2L450.6 235.4ZM491.28 273.38C491.28 272.18 491.76 270.98 492.72 269.78C493.68 268.46 494.7 267.8 495.78 267.8C511.38 266.6 523.44 266 531.96 266C546.12 266 554.34 267.44 556.62 270.32L560.04 272.66L557.7 275C555.54 276.8 552.36 278.18 548.16 279.14C543.96 280.1 540.24 280.7 537 280.94C533.76 281.06 528.66 281.12 521.7 281.12C514.74 281.12 510.12 281.18 507.84 281.3C503.88 281.3 501.18 281.12 499.74 280.76C498.42 280.4 497.1 279.56 495.78 278.24C494.58 276.92 493.26 275.84 491.82 275C491.46 274.64 491.28 274.1 491.28 273.38ZM498.84 304.34C498.84 300.86 499.2 299.12 499.92 299.12C500.04 299.12 500.1 299.18 500.1 299.3C500.1 299.3 500.16 299.3 500.28 299.3C500.4 297.86 501.48 296.66 503.52 295.7C505.56 294.62 507.9 294.08 510.54 294.08C512.1 294.08 513.78 294.38 515.58 294.98C518.58 295.46 524.1 295.82 532.14 296.06C540.3 296.3 547.14 296.9 552.66 297.86C558.18 298.82 561.6 300.5 562.92 302.9C564.36 305.78 565.08 308.54 565.08 311.18C565.08 313.7 564.36 317.18 562.92 321.62C561.6 325.94 560.94 329 560.94 330.8C560.94 332.48 561.24 333.92 561.84 335.12C562.92 336.56 563.46 337.82 563.46 338.9C563.46 340.7 562.02 342.44 559.14 344.12L554.64 347L541.5 347.54H539.52C537.36 347.54 533.64 347.66 528.36 347.9C523.2 348.14 519.36 348.26 516.84 348.26C509.64 348.26 505.14 347.36 503.34 345.56C502.38 345.44 501.42 344.96 500.46 344.12C499.62 343.28 499.2 342.38 499.2 341.42C499.2 340.7 499.56 340.1 500.28 339.62H500.46C500.82 339.62 501 338.6 501 336.56C501 334.4 500.64 329.24 499.92 321.08C499.2 312.92 498.84 307.34 498.84 304.34ZM516.3 331.88C516.3 332.6 517.92 332.96 521.16 332.96C523.8 332.96 527.58 332.72 532.5 332.24C537.54 331.76 540.12 331.52 540.24 331.52H540.42C540.78 331.16 541.08 327.8 541.32 321.44L541.68 311.72L539.34 311.18C537.54 310.7 534.48 310.34 530.16 310.1L523.14 309.56L522.24 313.34C522.12 314.18 522 315.5 521.88 317.3C521.76 318.98 521.64 320.36 521.52 321.44C521.4 322.4 521.22 323.54 520.98 324.86C520.74 326.06 520.38 327.08 519.9 327.92C519.42 328.76 518.82 329.42 518.1 329.9C516.9 330.74 516.3 331.4 516.3 331.88Z" fill="white"/>
<path d="M231.164 576V489.76H251.615V526.535L280.875 489.76H306.378L274.469 529.369L310.505 576H284.202L260.978 544.83L251.615 555.487V576H231.164ZM324.163 603.535C321.288 603.535 318.475 603.248 315.723 602.673C312.972 602.098 310.446 601.174 308.147 599.901L312.397 583.022C313.752 583.72 315.231 584.275 316.832 584.686C318.434 585.096 319.933 585.302 321.329 585.302C323.588 585.302 325.497 584.829 327.058 583.885C328.659 582.94 329.809 581.38 330.507 579.203L331.431 576.246L307.038 513.168H328.967L342.889 556.226L356.379 513.168H377.755L351.698 582.222C349.562 587.56 347.078 591.77 344.244 594.85C341.452 597.971 338.351 600.188 334.943 601.502C331.534 602.858 327.941 603.535 324.163 603.535ZM415.903 577.848C409.045 577.848 402.988 576.349 397.731 573.351C392.475 570.312 388.348 566.267 385.35 561.216C382.393 556.165 380.915 550.621 380.915 544.584C380.915 540.19 381.756 536.001 383.44 532.018C385.165 527.993 387.588 524.441 390.709 521.361C393.83 518.24 397.526 515.796 401.797 514.03C406.068 512.223 410.77 511.32 415.903 511.32C422.761 511.32 428.819 512.839 434.075 515.878C439.332 518.876 443.439 522.901 446.395 527.952C449.352 533.003 450.831 538.547 450.831 544.584C450.831 548.978 449.989 553.187 448.305 557.212C446.621 561.195 444.219 564.727 441.098 567.807C437.977 570.887 434.281 573.331 430.01 575.138C425.739 576.944 421.037 577.848 415.903 577.848ZM415.903 560.477C418.778 560.477 421.365 559.84 423.665 558.567C425.965 557.253 427.772 555.405 429.086 553.023C430.4 550.641 431.057 547.828 431.057 544.584C431.057 541.299 430.4 538.486 429.086 536.145C427.813 533.763 426.026 531.935 423.727 530.662C421.427 529.348 418.819 528.691 415.903 528.691C412.988 528.691 410.38 529.348 408.08 530.662C405.78 531.935 403.973 533.763 402.659 536.145C401.345 538.486 400.688 541.299 400.688 544.584C400.688 547.828 401.345 550.641 402.659 553.023C404.015 555.405 405.842 557.253 408.142 558.567C410.441 559.84 413.029 560.477 415.903 560.477ZM393.543 500.232V487.912H438.264V500.232H393.543ZM489.507 577.848C483.552 577.848 478.213 576.472 473.491 573.721C468.768 570.928 465.051 567.047 462.341 562.078C459.631 557.068 458.275 551.237 458.275 544.584C458.275 539.861 459.056 535.488 460.616 531.463C462.177 527.439 464.353 523.927 467.146 520.93C469.979 517.891 473.326 515.529 477.187 513.846C481.047 512.162 485.277 511.32 489.876 511.32C494.681 511.32 499.014 512.264 502.874 514.154C506.734 516.043 510.102 518.856 512.976 522.593L508.356 527.213V487.296H528.561V576H511.128V559.676L513.9 564.234C512.093 568.259 509.075 571.544 504.845 574.09C500.615 576.595 495.502 577.848 489.507 577.848ZM493.264 560.477C496.139 560.477 498.726 559.84 501.026 558.567C503.326 557.253 505.133 555.405 506.447 553.023C507.761 550.641 508.418 547.828 508.418 544.584C508.418 541.299 507.761 538.486 506.447 536.145C505.174 533.763 503.387 531.935 501.087 530.662C498.788 529.348 496.18 528.691 493.264 528.691C490.349 528.691 487.741 529.348 485.441 530.662C483.141 531.935 481.334 533.763 480.02 536.145C478.706 538.486 478.049 541.299 478.049 544.584C478.049 547.828 478.706 550.641 480.02 553.023C481.375 555.405 483.203 557.253 485.503 558.567C487.802 559.84 490.39 560.477 493.264 560.477ZM575.317 577.848C568.459 577.848 562.402 576.349 557.145 573.351C551.889 570.312 547.762 566.267 544.764 561.216C541.807 556.165 540.329 550.621 540.329 544.584C540.329 540.19 541.17 536.001 542.854 532.018C544.579 527.993 547.002 524.441 550.123 521.361C553.244 518.24 556.94 515.796 561.211 514.03C565.482 512.223 570.184 511.32 575.317 511.32C582.176 511.32 588.233 512.839 593.489 515.878C598.746 518.876 602.853 522.901 605.809 527.952C608.766 533.003 610.245 538.547 610.245 544.584C610.245 548.978 609.403 553.187 607.719 557.212C606.035 561.195 603.633 564.727 600.512 567.807C597.391 570.887 593.695 573.331 589.424 575.138C585.153 576.944 580.451 577.848 575.317 577.848ZM575.317 560.477C578.192 560.477 580.779 559.84 583.079 558.567C585.379 557.253 587.186 555.405 588.5 553.023C589.814 550.641 590.471 547.828 590.471 544.584C590.471 541.299 589.814 538.486 588.5 536.145C587.227 533.763 585.44 531.935 583.141 530.662C580.841 529.348 578.233 528.691 575.317 528.691C572.402 528.691 569.794 529.348 567.494 530.662C565.194 531.935 563.388 533.763 562.073 536.145C560.759 538.486 560.102 541.299 560.102 544.584C560.102 547.828 560.759 550.641 562.073 553.023C563.429 555.405 565.256 557.253 567.556 558.567C569.856 559.84 572.443 560.477 575.317 560.477ZM552.957 500.232V487.912H597.678V500.232H552.957Z" fill="#060606"/>
<defs>
<linearGradient id="paint0_linear_471_1788" x1="84" y1="63" x2="704" y2="819" gradientUnits="userSpaceOnUse">
<stop stop-color="#A3C987"/>
<stop offset="0.489583" stop-color="#FC795D"/>
<stop offset="1" stop-color="#78BCEE"/>
</linearGradient>
</defs>
</svg>
