<svg width="942" height="264" viewBox="0 0 942 264" fill="none" xmlns="http://www.w3.org/2000/svg">
<path d="M5 31C5 17.1929 16.1929 6 30 6H433C446.807 6 458 17.1929 458 31V234C458 247.807 446.807 259 433 259H30C16.1929 259 5 247.807 5 234V31Z" stroke="#060A0F" stroke-width="10"/>
<path d="M44.8 93.78C48.76 90.78 51.7 89.04 53.62 88.56C56.38 87.84 61.18 87.3 68.02 86.94C71.38 86.82 75.52 86.64 80.44 86.4C86.2 86.16 89.92 85.92 91.6 85.68C93.28 85.32 94.12 84.54 94.12 83.34C94.12 82.74 93.94 81.96 93.58 81C93.22 79.92 92.68 78.42 91.96 76.5C91.24 74.46 90.58 72.6 89.98 70.92L88 67.14L91.06 65.88C93.34 64.44 96.16 63.72 99.52 63.72C104.92 63.72 110.14 65.46 115.18 68.94C120.34 72.42 122.92 75.96 122.92 79.56V80.46C122.56 80.58 122.38 80.82 122.38 81.18C122.38 82.02 125.08 82.44 130.48 82.44C137.56 82.44 141.1 82.32 141.1 82.08L142.18 76.86C142.18 75.9 142.12 74.34 142 72.18C142 70.02 142 68.4 142 67.32C142 62.4 142.3 59.94 142.9 59.94C143.02 59.94 143.2 60.06 143.44 60.3C146.44 59.46 149.56 59.04 152.8 59.04C158.32 59.04 162.76 60.48 166.12 63.36C169.48 66.24 171.16 70.32 171.16 75.6C171.16 76.32 171.04 77.64 170.8 79.56C170.68 79.8 170.62 80.1 170.62 80.46C170.62 81.42 171.76 82.14 174.04 82.62C176.32 82.98 178.78 83.34 181.42 83.7C184.06 84.06 185.62 84.6 186.1 85.32C188.26 85.32 189.34 86.7 189.34 89.46C189.34 91.02 188.92 93.3 188.08 96.3C187.96 97.14 184.84 97.74 178.72 98.1C172.72 98.34 169.66 99.12 169.54 100.44C168.7 115.68 166.72 128.46 163.6 138.78H165.58C167.14 138.78 171.52 138.6 178.72 138.24C186.04 137.88 191.5 137.7 195.1 137.7C202.3 137.7 205.66 138.36 205.18 139.68C205.3 139.56 205.48 139.5 205.72 139.5C206.44 139.5 207.04 140.16 207.52 141.48C208.12 142.8 208.42 144.18 208.42 145.62C208.42 147.9 207.76 149.04 206.44 149.04H206.08C199.72 152.16 193.54 154.2 187.54 155.16C181.54 156 173.08 156.42 162.16 156.42C159.4 156.42 153.7 156.42 145.06 156.42C136.42 156.3 129.04 156.24 122.92 156.24C114.16 156.24 105.16 156.3 95.92 156.42C86.68 156.42 81.4 156.42 80.08 156.42C77.32 156.42 75.22 156.42 73.78 156.42C72.34 156.3 70.9 156.12 69.46 155.88C68.02 155.52 67.06 155.28 66.58 155.16C66.1 154.92 64.9 154.38 62.98 153.54C61.18 152.7 59.62 151.98 58.3 151.38C56.98 150.78 55.66 149.76 54.34 148.32C53.14 146.88 52.54 145.62 52.54 144.54C54.46 143.82 56.38 142.98 58.3 142.02C60.34 141.06 62.5 140.46 64.78 140.22C67.06 139.98 73 139.8 82.6 139.68C84.16 139.68 85.36 139.68 86.2 139.68C99.64 139.56 106.36 139.26 106.36 138.78C106.36 138.54 105.94 138.12 105.1 137.52C104.38 136.92 103.48 136.02 102.4 134.82C101.32 133.62 100.54 132.24 100.06 130.68C99.1 127.56 98.32 122.64 97.72 115.92C97.12 109.08 96.58 104.64 96.1 102.6C83.5 103.32 75.7 103.68 72.7 103.68C55.9 103.68 46.6 100.38 44.8 93.78ZM69.28 203.58C69.28 200.58 70.84 196.56 73.96 191.52C77.2 186.48 80.8 181.38 84.76 176.22C88.72 171.06 91.12 167.64 91.96 165.96C95.56 163.44 100.18 162.18 105.82 162.18C111.1 162.18 114.88 163.5 117.16 166.14C119.2 167.22 120.22 168.96 120.22 171.36C120.22 172.08 120.04 172.62 119.68 172.98C118.12 174.54 115.18 177.78 110.86 182.7C106.66 187.5 103 191.52 99.88 194.76C96.88 197.88 93.1 200.88 88.54 203.76C84.1 206.64 79.9 208.08 75.94 208.08C73.78 208.08 71.92 207.78 70.36 207.18C69.64 206.34 69.28 205.14 69.28 203.58ZM110.5 138.96C110.5 139.44 116.92 139.68 129.76 139.68H148.84L146.86 136.44C145.3 135.6 144.1 132.9 143.26 128.34C142.54 123.78 142 118.14 141.64 111.42C141.4 104.7 141.22 100.68 141.1 99.36C140.26 99 138.58 98.82 136.06 98.82C134.5 98.82 132.88 98.94 131.2 99.18C129.52 99.3 128.14 99.48 127.06 99.72C125.98 99.84 125.44 99.96 125.44 100.08H125.62C115.54 118.44 110.5 131.4 110.5 138.96ZM151 174.06C151 172.14 152.02 170.58 154.06 169.38C156.1 168.06 158.92 167.4 162.52 167.4C170.8 167.4 178.48 170.34 185.56 176.22C192.76 182.1 198.1 188.46 201.58 195.3V196.74C201.58 201.54 199 203.94 193.84 203.94C189.52 203.94 184.48 202.44 178.72 199.44C172.96 196.44 168.58 193.14 165.58 189.54C162.94 186.18 159.88 183.42 156.4 181.26C152.8 179.1 151 176.7 151 174.06ZM244.6 68.4L246.58 66.78C249.58 64.14 252.7 62.82 255.94 62.82C257.5 62.82 260.92 63.48 266.2 64.8C271.6 66.12 276.46 66.78 280.78 66.78C329.02 66.78 363.04 65.94 382.84 64.26L395.44 63.72L398.86 65.88C400.42 66.84 401.38 67.5 401.74 67.86C402.22 68.22 402.76 69.12 403.36 70.56C403.96 71.88 404.26 73.62 404.26 75.78C404.38 77.82 404.44 81 404.44 85.32C404.44 90.48 404.38 98.64 404.26 109.8C404.26 120.96 404.26 128.76 404.26 133.2C404.26 140.4 404.26 150.72 404.26 164.16C404.38 177.6 404.44 187.98 404.44 195.3C404.44 198.3 404.26 200.52 403.9 201.96C403.54 203.4 403.12 204.3 402.64 204.66C402.16 204.9 401.2 205.32 399.76 205.92C398.32 206.4 397 207 395.8 207.72H394.18C389.02 207.72 381.94 206.1 372.94 202.86C364.06 199.62 358 197.7 354.76 197.1C353.32 196.74 352.6 196.38 352.6 196.02C352.6 195.66 352.9 195.3 353.5 194.94C354.22 194.46 354.94 194.1 355.66 193.86C356.5 193.5 357.22 193.2 357.82 192.96C358.42 192.6 358.72 192.36 358.72 192.24C359.2 191.28 363.88 190.68 372.76 190.44L379.24 190.26L379.42 185.22C379.18 182.7 378.88 179.88 378.52 176.76C378.16 173.52 377.92 171.36 377.8 170.28C377.68 169.08 377.56 167.1 377.44 164.34C377.32 161.58 377.2 158.52 377.08 155.16C377.08 151.8 377.08 147.3 377.08 141.66V124.56V81.54L355.12 81.9C334.96 82.14 319.96 82.26 310.12 82.26C292.48 82.26 281.8 82.08 278.08 81.72L271.42 81.18L271.96 85.14C273.4 110.46 274.12 134.88 274.12 158.4V177.12C274.12 179.4 273.88 181.44 273.4 183.24C273.04 185.04 272.62 186.36 272.14 187.2C271.78 187.92 271 189.06 269.8 190.62C268.6 192.18 267.82 193.26 267.46 193.86C267.7 195.18 266.32 197.1 263.32 199.62C260.32 202.14 257.56 203.4 255.04 203.4C254.2 203.4 253.48 203.22 252.88 202.86C250.48 195.78 248.68 187.74 247.48 178.74C246.4 169.74 245.8 161.82 245.68 154.98C245.56 148.02 245.44 138.54 245.32 126.54C245.32 114.42 245.2 104.64 244.96 97.2L244.6 68.4ZM285.28 106.38C285.28 105.18 285.76 103.98 286.72 102.78C287.68 101.46 288.7 100.8 289.78 100.8C305.38 99.6 317.44 99 325.96 99C340.12 99 348.34 100.44 350.62 103.32L354.04 105.66L351.7 108C349.54 109.8 346.36 111.18 342.16 112.14C337.96 113.1 334.24 113.7 331 113.94C327.76 114.06 322.66 114.12 315.7 114.12C308.74 114.12 304.12 114.18 301.84 114.3C297.88 114.3 295.18 114.12 293.74 113.76C292.42 113.4 291.1 112.56 289.78 111.24C288.58 109.92 287.26 108.84 285.82 108C285.46 107.64 285.28 107.1 285.28 106.38ZM292.84 137.34C292.84 133.86 293.2 132.12 293.92 132.12C294.04 132.12 294.1 132.18 294.1 132.3C294.1 132.3 294.16 132.3 294.28 132.3C294.4 130.86 295.48 129.66 297.52 128.7C299.56 127.62 301.9 127.08 304.54 127.08C306.1 127.08 307.78 127.38 309.58 127.98C312.58 128.46 318.1 128.82 326.14 129.06C334.3 129.3 341.14 129.9 346.66 130.86C352.18 131.82 355.6 133.5 356.92 135.9C358.36 138.78 359.08 141.54 359.08 144.18C359.08 146.7 358.36 150.18 356.92 154.62C355.6 158.94 354.94 162 354.94 163.8C354.94 165.48 355.24 166.92 355.84 168.12C356.92 169.56 357.46 170.82 357.46 171.9C357.46 173.7 356.02 175.44 353.14 177.12L348.64 180L335.5 180.54H333.52C331.36 180.54 327.64 180.66 322.36 180.9C317.2 181.14 313.36 181.26 310.84 181.26C303.64 181.26 299.14 180.36 297.34 178.56C296.38 178.44 295.42 177.96 294.46 177.12C293.62 176.28 293.2 175.38 293.2 174.42C293.2 173.7 293.56 173.1 294.28 172.62H294.46C294.82 172.62 295 171.6 295 169.56C295 167.4 294.64 162.24 293.92 154.08C293.2 145.92 292.84 140.34 292.84 137.34ZM310.3 164.88C310.3 165.6 311.92 165.96 315.16 165.96C317.8 165.96 321.58 165.72 326.5 165.24C331.54 164.76 334.12 164.52 334.24 164.52H334.42C334.78 164.16 335.08 160.8 335.32 154.44L335.68 144.72L333.34 144.18C331.54 143.7 328.48 143.34 324.16 143.1L317.14 142.56L316.24 146.34C316.12 147.18 316 148.5 315.88 150.3C315.76 151.98 315.64 153.36 315.52 154.44C315.4 155.4 315.22 156.54 314.98 157.86C314.74 159.06 314.38 160.08 313.9 160.92C313.42 161.76 312.82 162.42 312.1 162.9C310.9 163.74 310.3 164.4 310.3 164.88Z" fill="#060A0F"/>
<path d="M547.164 123V36.76H567.615V73.5352L596.875 36.76H622.378L590.469 76.3688L626.505 123H600.202L576.978 91.8304L567.615 102.487V123H547.164ZM640.163 150.535C637.288 150.535 634.475 150.248 631.723 149.673C628.972 149.098 626.446 148.174 624.147 146.901L628.397 130.022C629.752 130.721 631.231 131.275 632.832 131.686C634.434 132.096 635.933 132.302 637.329 132.302C639.588 132.302 641.497 131.829 643.058 130.885C644.659 129.94 645.809 128.38 646.507 126.203L647.431 123.246L623.038 60.168H644.967L658.889 103.226L672.379 60.168H693.755L667.698 129.222C665.562 134.56 663.078 138.77 660.244 141.85C657.452 144.971 654.351 147.188 650.943 148.502C647.534 149.858 643.941 150.535 640.163 150.535ZM731.903 124.848C725.045 124.848 718.988 123.349 713.731 120.351C708.475 117.312 704.348 113.267 701.35 108.216C698.393 103.165 696.915 97.6208 696.915 91.584C696.915 87.1899 697.756 83.0011 699.44 79.0176C701.165 74.9931 703.588 71.4408 706.709 68.3608C709.83 65.2397 713.526 62.7963 717.797 61.0304C722.068 59.2235 726.77 58.32 731.903 58.32C738.761 58.32 744.819 59.8395 750.075 62.8784C755.332 65.8763 759.439 69.9008 762.395 74.952C765.352 80.0032 766.831 85.5472 766.831 91.584C766.831 95.9781 765.989 100.187 764.305 104.212C762.621 108.195 760.219 111.727 757.098 114.807C753.977 117.887 750.281 120.331 746.01 122.138C741.739 123.945 737.037 124.848 731.903 124.848ZM731.903 107.477C734.778 107.477 737.365 106.84 739.665 105.567C741.965 104.253 743.772 102.405 745.086 100.023C746.4 97.6413 747.057 94.8283 747.057 91.584C747.057 88.2987 746.4 85.4856 745.086 83.1448C743.813 80.7629 742.026 78.9355 739.727 77.6624C737.427 76.3483 734.819 75.6912 731.903 75.6912C728.988 75.6912 726.38 76.3483 724.08 77.6624C721.78 78.9355 719.973 80.7629 718.659 83.1448C717.345 85.4856 716.688 88.2987 716.688 91.584C716.688 94.8283 717.345 97.6413 718.659 100.023C720.015 102.405 721.842 104.253 724.142 105.567C726.441 106.84 729.029 107.477 731.903 107.477ZM709.543 47.232V34.912H754.264V47.232H709.543ZM805.507 124.848C799.552 124.848 794.213 123.472 789.491 120.721C784.768 117.928 781.051 114.047 778.341 109.078C775.631 104.068 774.275 98.2368 774.275 91.584C774.275 86.8613 775.056 82.4877 776.616 78.4632C778.177 74.4387 780.353 70.9275 783.146 67.9296C785.979 64.8907 789.326 62.5293 793.187 60.8456C797.047 59.1619 801.277 58.32 805.876 58.32C810.681 58.32 815.014 59.2645 818.874 61.1536C822.734 63.0427 826.102 65.8557 828.976 69.5928L824.356 74.2128V34.296H844.561V123H827.128V106.676L829.9 111.234C828.093 115.259 825.075 118.544 820.845 121.09C816.615 123.595 811.502 124.848 805.507 124.848ZM809.264 107.477C812.139 107.477 814.726 106.84 817.026 105.567C819.326 104.253 821.133 102.405 822.447 100.023C823.761 97.6413 824.418 94.8283 824.418 91.584C824.418 88.2987 823.761 85.4856 822.447 83.1448C821.174 80.7629 819.387 78.9355 817.087 77.6624C814.788 76.3483 812.18 75.6912 809.264 75.6912C806.349 75.6912 803.741 76.3483 801.441 77.6624C799.141 78.9355 797.334 80.7629 796.02 83.1448C794.706 85.4856 794.049 88.2987 794.049 91.584C794.049 94.8283 794.706 97.6413 796.02 100.023C797.375 102.405 799.203 104.253 801.503 105.567C803.802 106.84 806.39 107.477 809.264 107.477ZM891.317 124.848C884.459 124.848 878.402 123.349 873.145 120.351C867.889 117.312 863.762 113.267 860.764 108.216C857.807 103.165 856.329 97.6208 856.329 91.584C856.329 87.1899 857.17 83.0011 858.854 79.0176C860.579 74.9931 863.002 71.4408 866.123 68.3608C869.244 65.2397 872.94 62.7963 877.211 61.0304C881.482 59.2235 886.184 58.32 891.317 58.32C898.176 58.32 904.233 59.8395 909.489 62.8784C914.746 65.8763 918.853 69.9008 921.809 74.952C924.766 80.0032 926.245 85.5472 926.245 91.584C926.245 95.9781 925.403 100.187 923.719 104.212C922.035 108.195 919.633 111.727 916.512 114.807C913.391 117.887 909.695 120.331 905.424 122.138C901.153 123.945 896.451 124.848 891.317 124.848ZM891.317 107.477C894.192 107.477 896.779 106.84 899.079 105.567C901.379 104.253 903.186 102.405 904.5 100.023C905.814 97.6413 906.471 94.8283 906.471 91.584C906.471 88.2987 905.814 85.4856 904.5 83.1448C903.227 80.7629 901.44 78.9355 899.141 77.6624C896.841 76.3483 894.233 75.6912 891.317 75.6912C888.402 75.6912 885.794 76.3483 883.494 77.6624C881.194 78.9355 879.388 80.7629 878.073 83.1448C876.759 85.4856 876.102 88.2987 876.102 91.584C876.102 94.8283 876.759 97.6413 878.073 100.023C879.429 102.405 881.256 104.253 883.556 105.567C885.856 106.84 888.443 107.477 891.317 107.477ZM868.957 47.232V34.912H913.678V47.232H868.957Z" fill="#060A0F"/>
<path d="M551.818 199.924V228H546.984V157.98H563.879C571.073 157.98 576.574 159.657 580.383 163.01C584.191 166.33 586.096 171.197 586.096 177.609C586.096 184.12 583.964 189.475 579.699 193.674C575.467 197.84 569.527 199.924 561.877 199.924H551.818ZM551.818 162.424V195.48H561.779C568.094 195.48 572.896 193.983 576.184 190.988C579.471 187.961 581.115 183.697 581.115 178.195C581.115 167.681 575.077 162.424 563 162.424H551.818ZM630.806 182.688C629.309 181.613 627.551 181.076 625.533 181.076C621.594 181.076 618.29 183.111 615.621 187.18C612.952 191.249 611.617 197.027 611.617 204.514V228H607.222V178H611.617V189.084H611.812C612.952 185.275 614.758 182.313 617.232 180.197C619.706 178.081 622.571 177.023 625.826 177.023C627.681 177.023 629.341 177.316 630.806 177.902V182.688ZM665.068 229.221C657.776 229.221 651.998 226.828 647.734 222.043C643.502 217.225 641.386 210.975 641.386 203.293C641.386 194.992 643.6 188.498 648.027 183.811C652.486 179.123 658.346 176.779 665.605 176.779C672.734 176.779 678.365 179.107 682.499 183.762C686.633 188.417 688.701 194.862 688.701 203.098C688.701 210.878 686.585 217.176 682.353 221.994C678.154 226.812 672.392 229.221 665.068 229.221ZM665.41 180.881C659.518 180.881 654.814 182.867 651.298 186.838C647.815 190.809 646.074 196.327 646.074 203.391C646.074 209.934 647.783 215.191 651.201 219.162C654.619 223.133 659.29 225.119 665.214 225.119C671.236 225.119 675.875 223.166 679.13 219.26C682.385 215.354 684.013 209.934 684.013 203C684.013 195.871 682.385 190.402 679.13 186.594C675.908 182.785 671.334 180.881 665.41 180.881ZM727.747 227.316C725.403 228.423 723.206 228.977 721.155 228.977C713.766 228.977 710.071 224.549 710.071 215.695V182.102H701.087V178H710.071V165.012C710.787 164.751 711.536 164.491 712.317 164.23C713.099 164.003 713.847 163.758 714.564 163.498V178H727.747V182.102H714.564V215.109C714.564 218.56 715.101 221.066 716.175 222.629C717.282 224.159 719.137 224.924 721.741 224.924C723.597 224.924 725.599 224.322 727.747 223.117V227.316ZM764.548 229.221C757.256 229.221 751.478 226.828 747.214 222.043C742.982 217.225 740.866 210.975 740.866 203.293C740.866 194.992 743.079 188.498 747.507 183.811C751.966 179.123 757.826 176.779 765.085 176.779C772.214 176.779 777.845 179.107 781.979 183.762C786.113 188.417 788.18 194.862 788.18 203.098C788.18 210.878 786.065 217.176 781.833 221.994C777.634 226.812 771.872 229.221 764.548 229.221ZM764.889 180.881C758.997 180.881 754.294 182.867 750.778 186.838C747.295 190.809 745.553 196.327 745.553 203.391C745.553 209.934 747.262 215.191 750.68 219.162C754.098 223.133 758.77 225.119 764.694 225.119C770.716 225.119 775.355 223.166 778.61 219.26C781.865 215.354 783.493 209.934 783.493 203C783.493 195.871 781.865 190.402 778.61 186.594C775.387 182.785 770.814 180.881 764.889 180.881ZM839.825 225.803C836.114 228.081 831.687 229.221 826.543 229.221C819.74 229.221 814.255 226.893 810.088 222.238C805.922 217.551 803.838 211.431 803.838 203.879C803.838 195.936 806.182 189.442 810.87 184.396C815.557 179.318 821.579 176.779 828.936 176.779C832.745 176.779 836.439 177.561 840.02 179.123V184.201C836.439 181.988 832.517 180.881 828.252 180.881C822.393 180.881 817.64 182.997 813.995 187.229C810.349 191.428 808.526 196.88 808.526 203.586C808.526 210.064 810.186 215.272 813.506 219.211C816.859 223.15 821.27 225.119 826.739 225.119C831.752 225.119 836.114 223.785 839.825 221.115V225.803ZM878.774 229.221C871.482 229.221 865.704 226.828 861.44 222.043C857.208 217.225 855.092 210.975 855.092 203.293C855.092 194.992 857.305 188.498 861.733 183.811C866.192 179.123 872.052 176.779 879.311 176.779C886.44 176.779 892.071 179.107 896.205 183.762C900.339 188.417 902.406 194.862 902.406 203.098C902.406 210.878 900.29 217.176 896.059 221.994C891.859 226.812 886.098 229.221 878.774 229.221ZM879.115 180.881C873.223 180.881 868.52 182.867 865.004 186.838C861.521 190.809 859.779 196.327 859.779 203.391C859.779 209.934 861.488 215.191 864.906 219.162C868.324 223.133 872.996 225.119 878.92 225.119C884.942 225.119 889.581 223.166 892.836 219.26C896.091 215.354 897.719 209.934 897.719 203C897.719 195.871 896.091 190.402 892.836 186.594C889.613 182.785 885.04 180.881 879.115 180.881ZM921.677 228V153.977H926.17V228H921.677Z" fill="#060A0F"/>
</svg>
