<svg width="468" height="264" viewBox="0 0 468 264" fill="none" xmlns="http://www.w3.org/2000/svg">
<path d="M5 31C5 17.1929 16.1929 6 30 6H433C446.807 6 458 17.1929 458 31V234C458 247.807 446.807 259 433 259H30C16.1929 259 5 247.807 5 234V31Z" stroke="white" stroke-width="10"/>
<path d="M44.8 93.78C48.76 90.78 51.7 89.04 53.62 88.56C56.38 87.84 61.18 87.3 68.02 86.94C71.38 86.82 75.52 86.64 80.44 86.4C86.2 86.16 89.92 85.92 91.6 85.68C93.28 85.32 94.12 84.54 94.12 83.34C94.12 82.74 93.94 81.96 93.58 81C93.22 79.92 92.68 78.42 91.96 76.5C91.24 74.46 90.58 72.6 89.98 70.92L88 67.14L91.06 65.88C93.34 64.44 96.16 63.72 99.52 63.72C104.92 63.72 110.14 65.46 115.18 68.94C120.34 72.42 122.92 75.96 122.92 79.56V80.46C122.56 80.58 122.38 80.82 122.38 81.18C122.38 82.02 125.08 82.44 130.48 82.44C137.56 82.44 141.1 82.32 141.1 82.08L142.18 76.86C142.18 75.9 142.12 74.34 142 72.18C142 70.02 142 68.4 142 67.32C142 62.4 142.3 59.94 142.9 59.94C143.02 59.94 143.2 60.06 143.44 60.3C146.44 59.46 149.56 59.04 152.8 59.04C158.32 59.04 162.76 60.48 166.12 63.36C169.48 66.24 171.16 70.32 171.16 75.6C171.16 76.32 171.04 77.64 170.8 79.56C170.68 79.8 170.62 80.1 170.62 80.46C170.62 81.42 171.76 82.14 174.04 82.62C176.32 82.98 178.78 83.34 181.42 83.7C184.06 84.06 185.62 84.6 186.1 85.32C188.26 85.32 189.34 86.7 189.34 89.46C189.34 91.02 188.92 93.3 188.08 96.3C187.96 97.14 184.84 97.74 178.72 98.1C172.72 98.34 169.66 99.12 169.54 100.44C168.7 115.68 166.72 128.46 163.6 138.78H165.58C167.14 138.78 171.52 138.6 178.72 138.24C186.04 137.88 191.5 137.7 195.1 137.7C202.3 137.7 205.66 138.36 205.18 139.68C205.3 139.56 205.48 139.5 205.72 139.5C206.44 139.5 207.04 140.16 207.52 141.48C208.12 142.8 208.42 144.18 208.42 145.62C208.42 147.9 207.76 149.04 206.44 149.04H206.08C199.72 152.16 193.54 154.2 187.54 155.16C181.54 156 173.08 156.42 162.16 156.42C159.4 156.42 153.7 156.42 145.06 156.42C136.42 156.3 129.04 156.24 122.92 156.24C114.16 156.24 105.16 156.3 95.92 156.42C86.68 156.42 81.4 156.42 80.08 156.42C77.32 156.42 75.22 156.42 73.78 156.42C72.34 156.3 70.9 156.12 69.46 155.88C68.02 155.52 67.06 155.28 66.58 155.16C66.1 154.92 64.9 154.38 62.98 153.54C61.18 152.7 59.62 151.98 58.3 151.38C56.98 150.78 55.66 149.76 54.34 148.32C53.14 146.88 52.54 145.62 52.54 144.54C54.46 143.82 56.38 142.98 58.3 142.02C60.34 141.06 62.5 140.46 64.78 140.22C67.06 139.98 73 139.8 82.6 139.68C84.16 139.68 85.36 139.68 86.2 139.68C99.64 139.56 106.36 139.26 106.36 138.78C106.36 138.54 105.94 138.12 105.1 137.52C104.38 136.92 103.48 136.02 102.4 134.82C101.32 133.62 100.54 132.24 100.06 130.68C99.1 127.56 98.32 122.64 97.72 115.92C97.12 109.08 96.58 104.64 96.1 102.6C83.5 103.32 75.7 103.68 72.7 103.68C55.9 103.68 46.6 100.38 44.8 93.78ZM69.28 203.58C69.28 200.58 70.84 196.56 73.96 191.52C77.2 186.48 80.8 181.38 84.76 176.22C88.72 171.06 91.12 167.64 91.96 165.96C95.56 163.44 100.18 162.18 105.82 162.18C111.1 162.18 114.88 163.5 117.16 166.14C119.2 167.22 120.22 168.96 120.22 171.36C120.22 172.08 120.04 172.62 119.68 172.98C118.12 174.54 115.18 177.78 110.86 182.7C106.66 187.5 103 191.52 99.88 194.76C96.88 197.88 93.1 200.88 88.54 203.76C84.1 206.64 79.9 208.08 75.94 208.08C73.78 208.08 71.92 207.78 70.36 207.18C69.64 206.34 69.28 205.14 69.28 203.58ZM110.5 138.96C110.5 139.44 116.92 139.68 129.76 139.68H148.84L146.86 136.44C145.3 135.6 144.1 132.9 143.26 128.34C142.54 123.78 142 118.14 141.64 111.42C141.4 104.7 141.22 100.68 141.1 99.36C140.26 99 138.58 98.82 136.06 98.82C134.5 98.82 132.88 98.94 131.2 99.18C129.52 99.3 128.14 99.48 127.06 99.72C125.98 99.84 125.44 99.96 125.44 100.08H125.62C115.54 118.44 110.5 131.4 110.5 138.96ZM151 174.06C151 172.14 152.02 170.58 154.06 169.38C156.1 168.06 158.92 167.4 162.52 167.4C170.8 167.4 178.48 170.34 185.56 176.22C192.76 182.1 198.1 188.46 201.58 195.3V196.74C201.58 201.54 199 203.94 193.84 203.94C189.52 203.94 184.48 202.44 178.72 199.44C172.96 196.44 168.58 193.14 165.58 189.54C162.94 186.18 159.88 183.42 156.4 181.26C152.8 179.1 151 176.7 151 174.06ZM244.6 68.4L246.58 66.78C249.58 64.14 252.7 62.82 255.94 62.82C257.5 62.82 260.92 63.48 266.2 64.8C271.6 66.12 276.46 66.78 280.78 66.78C329.02 66.78 363.04 65.94 382.84 64.26L395.44 63.72L398.86 65.88C400.42 66.84 401.38 67.5 401.74 67.86C402.22 68.22 402.76 69.12 403.36 70.56C403.96 71.88 404.26 73.62 404.26 75.78C404.38 77.82 404.44 81 404.44 85.32C404.44 90.48 404.38 98.64 404.26 109.8C404.26 120.96 404.26 128.76 404.26 133.2C404.26 140.4 404.26 150.72 404.26 164.16C404.38 177.6 404.44 187.98 404.44 195.3C404.44 198.3 404.26 200.52 403.9 201.96C403.54 203.4 403.12 204.3 402.64 204.66C402.16 204.9 401.2 205.32 399.76 205.92C398.32 206.4 397 207 395.8 207.72H394.18C389.02 207.72 381.94 206.1 372.94 202.86C364.06 199.62 358 197.7 354.76 197.1C353.32 196.74 352.6 196.38 352.6 196.02C352.6 195.66 352.9 195.3 353.5 194.94C354.22 194.46 354.94 194.1 355.66 193.86C356.5 193.5 357.22 193.2 357.82 192.96C358.42 192.6 358.72 192.36 358.72 192.24C359.2 191.28 363.88 190.68 372.76 190.44L379.24 190.26L379.42 185.22C379.18 182.7 378.88 179.88 378.52 176.76C378.16 173.52 377.92 171.36 377.8 170.28C377.68 169.08 377.56 167.1 377.44 164.34C377.32 161.58 377.2 158.52 377.08 155.16C377.08 151.8 377.08 147.3 377.08 141.66V124.56V81.54L355.12 81.9C334.96 82.14 319.96 82.26 310.12 82.26C292.48 82.26 281.8 82.08 278.08 81.72L271.42 81.18L271.96 85.14C273.4 110.46 274.12 134.88 274.12 158.4V177.12C274.12 179.4 273.88 181.44 273.4 183.24C273.04 185.04 272.62 186.36 272.14 187.2C271.78 187.92 271 189.06 269.8 190.62C268.6 192.18 267.82 193.26 267.46 193.86C267.7 195.18 266.32 197.1 263.32 199.62C260.32 202.14 257.56 203.4 255.04 203.4C254.2 203.4 253.48 203.22 252.88 202.86C250.48 195.78 248.68 187.74 247.48 178.74C246.4 169.74 245.8 161.82 245.68 154.98C245.56 148.02 245.44 138.54 245.32 126.54C245.32 114.42 245.2 104.64 244.96 97.2L244.6 68.4ZM285.28 106.38C285.28 105.18 285.76 103.98 286.72 102.78C287.68 101.46 288.7 100.8 289.78 100.8C305.38 99.6 317.44 99 325.96 99C340.12 99 348.34 100.44 350.62 103.32L354.04 105.66L351.7 108C349.54 109.8 346.36 111.18 342.16 112.14C337.96 113.1 334.24 113.7 331 113.94C327.76 114.06 322.66 114.12 315.7 114.12C308.74 114.12 304.12 114.18 301.84 114.3C297.88 114.3 295.18 114.12 293.74 113.76C292.42 113.4 291.1 112.56 289.78 111.24C288.58 109.92 287.26 108.84 285.82 108C285.46 107.64 285.28 107.1 285.28 106.38ZM292.84 137.34C292.84 133.86 293.2 132.12 293.92 132.12C294.04 132.12 294.1 132.18 294.1 132.3C294.1 132.3 294.16 132.3 294.28 132.3C294.4 130.86 295.48 129.66 297.52 128.7C299.56 127.62 301.9 127.08 304.54 127.08C306.1 127.08 307.78 127.38 309.58 127.98C312.58 128.46 318.1 128.82 326.14 129.06C334.3 129.3 341.14 129.9 346.66 130.86C352.18 131.82 355.6 133.5 356.92 135.9C358.36 138.78 359.08 141.54 359.08 144.18C359.08 146.7 358.36 150.18 356.92 154.62C355.6 158.94 354.94 162 354.94 163.8C354.94 165.48 355.24 166.92 355.84 168.12C356.92 169.56 357.46 170.82 357.46 171.9C357.46 173.7 356.02 175.44 353.14 177.12L348.64 180L335.5 180.54H333.52C331.36 180.54 327.64 180.66 322.36 180.9C317.2 181.14 313.36 181.26 310.84 181.26C303.64 181.26 299.14 180.36 297.34 178.56C296.38 178.44 295.42 177.96 294.46 177.12C293.62 176.28 293.2 175.38 293.2 174.42C293.2 173.7 293.56 173.1 294.28 172.62H294.46C294.82 172.62 295 171.6 295 169.56C295 167.4 294.64 162.24 293.92 154.08C293.2 145.92 292.84 140.34 292.84 137.34ZM310.3 164.88C310.3 165.6 311.92 165.96 315.16 165.96C317.8 165.96 321.58 165.72 326.5 165.24C331.54 164.76 334.12 164.52 334.24 164.52H334.42C334.78 164.16 335.08 160.8 335.32 154.44L335.68 144.72L333.34 144.18C331.54 143.7 328.48 143.34 324.16 143.1L317.14 142.56L316.24 146.34C316.12 147.18 316 148.5 315.88 150.3C315.76 151.98 315.64 153.36 315.52 154.44C315.4 155.4 315.22 156.54 314.98 157.86C314.74 159.06 314.38 160.08 313.9 160.92C313.42 161.76 312.82 162.42 312.1 162.9C310.9 163.74 310.3 164.4 310.3 164.88Z" fill="white"/>
</svg>
