<svg width="22" height="20" viewBox="0 0 22 20" fill="none" xmlns="http://www.w3.org/2000/svg">
<g clip-path="url(#clip0_624_7048)">
<path fill-rule="evenodd" clip-rule="evenodd" d="M6.30423 17.8397L9.16454 18.5928V17.6081L9.39803 17.3764H11.0325V18.5348V19.3457H9.28129L7.12145 18.419L6.30423 17.8397Z" fill="#CDBDB2"/>
<path fill-rule="evenodd" clip-rule="evenodd" d="M15.6439 17.8397L12.842 18.5928V17.6081L12.6085 17.3764H10.974V18.5348V19.3457H12.7252L14.885 18.419L15.6439 17.8397Z" fill="#CDBDB2"/>
<path fill-rule="evenodd" clip-rule="evenodd" d="M9.39804 15.6967L9.16455 17.6081L9.45636 17.3764H12.4917L12.842 17.6081L12.6085 15.6967L12.1415 15.407L9.8066 15.465L9.39804 15.6967Z" fill="#393939"/>
<path fill-rule="evenodd" clip-rule="evenodd" d="M7.82193 2.78021L9.22287 6.0238L9.86502 15.465H12.1415L12.842 6.0238L14.1262 2.78021H7.82193Z" fill="#F89C35"/>
<path fill-rule="evenodd" clip-rule="evenodd" d="M1.69284 9.9046L0.0584106 14.5962L4.1445 14.3645H6.77121V12.3373L6.65447 8.16696L6.07074 8.63033L1.69284 9.9046Z" fill="#F89D35"/>
<path fill-rule="evenodd" clip-rule="evenodd" d="M4.78653 10.4258L9.57309 10.5417L9.04778 12.9743L6.7712 12.3951L4.78653 10.4258Z" fill="#D87C30"/>
<path fill-rule="evenodd" clip-rule="evenodd" d="M4.78653 10.4838L6.7712 12.3373V14.1908L4.78653 10.4838Z" fill="#EA8D3A"/>
<path fill-rule="evenodd" clip-rule="evenodd" d="M6.77121 12.3951L9.10612 12.9744L9.86501 15.465L9.33961 15.7546L6.77121 14.2486V12.3951Z" fill="#F89D35"/>
<path fill-rule="evenodd" clip-rule="evenodd" d="M6.77121 14.2486L6.30423 17.8397L9.39803 15.6967L6.77121 14.2486Z" fill="#EB8F35"/>
<path fill-rule="evenodd" clip-rule="evenodd" d="M9.57311 10.5417L9.86502 15.465L8.98938 12.9454L9.57311 10.5417Z" fill="#EA8E3A"/>
<path fill-rule="evenodd" clip-rule="evenodd" d="M4.08606 14.3066L6.7712 14.2486L6.30422 17.8397L4.08606 14.3066Z" fill="#D87C30"/>
<path fill-rule="evenodd" clip-rule="evenodd" d="M1.34261 19.4037L6.30423 17.8398L4.08607 14.3066L0.0584106 14.5962L1.34261 19.4037Z" fill="#EB8F35"/>
<path fill-rule="evenodd" clip-rule="evenodd" d="M9.22285 6.0238L6.71288 8.10897L4.78653 10.4258L9.57309 10.5996L9.22285 6.0238Z" fill="#E8821E"/>
<path fill-rule="evenodd" clip-rule="evenodd" d="M6.30423 17.8398L9.39803 15.6967L9.16454 17.5502V18.5928L7.06313 18.1873L6.30423 17.8398Z" fill="#DFCEC3"/>
<path fill-rule="evenodd" clip-rule="evenodd" d="M15.6439 17.8398L12.6085 15.6967L12.842 17.5502V18.5928L14.9434 18.1873L15.6439 17.8398Z" fill="#DFCEC3"/>
<path fill-rule="evenodd" clip-rule="evenodd" d="M8.28891 11.5843L8.93106 12.9165L6.65448 12.3373L8.28891 11.5843Z" fill="#393939"/>
<path fill-rule="evenodd" clip-rule="evenodd" d="M1.28418 0.0579834L9.22286 6.02382L7.88034 2.78023L1.28418 0.0579834Z" fill="#E88F35"/>
<path fill-rule="evenodd" clip-rule="evenodd" d="M1.2842 0.0579224L0.23349 3.24359L0.817216 6.71887L0.408608 6.95055L0.992334 7.47184L0.525353 7.87729L1.16745 8.4565L0.758844 8.80403L1.69281 9.96245L6.07075 8.63027C8.21108 6.93124 9.26179 6.06242 9.22288 6.02381C9.18396 5.9852 6.53774 3.99657 1.2842 0.0579224Z" fill="#8E5A30"/>
<path fill-rule="evenodd" clip-rule="evenodd" d="M20.2552 9.9046L21.8897 14.5962L17.8036 14.3645H15.1769V12.3373L15.2936 8.16696L15.8773 8.63033L20.2552 9.9046Z" fill="#F89D35"/>
<path fill-rule="evenodd" clip-rule="evenodd" d="M17.1616 10.4258L12.375 10.5417L12.9003 12.9743L15.1769 12.3951L17.1616 10.4258Z" fill="#D87C30"/>
<path fill-rule="evenodd" clip-rule="evenodd" d="M17.1616 10.4838L15.1769 12.3373V14.1908L17.1616 10.4838Z" fill="#EA8D3A"/>
<path fill-rule="evenodd" clip-rule="evenodd" d="M15.1769 12.3951L12.842 12.9744L12.0831 15.465L12.6085 15.7546L15.1769 14.2486V12.3951Z" fill="#F89D35"/>
<path fill-rule="evenodd" clip-rule="evenodd" d="M15.1769 14.2486L15.6439 17.8397L12.6085 15.7546L15.1769 14.2486Z" fill="#EB8F35"/>
<path fill-rule="evenodd" clip-rule="evenodd" d="M12.375 10.5417L12.0831 15.465L12.9587 12.9454L12.375 10.5417Z" fill="#EA8E3A"/>
<path fill-rule="evenodd" clip-rule="evenodd" d="M17.862 14.3066L15.1769 14.2486L15.6439 17.8397L17.862 14.3066Z" fill="#D87C30"/>
<path fill-rule="evenodd" clip-rule="evenodd" d="M20.6055 19.4037L15.6439 17.8398L17.862 14.3066L21.8897 14.5962L20.6055 19.4037Z" fill="#EB8F35"/>
<path fill-rule="evenodd" clip-rule="evenodd" d="M12.7252 6.0238L15.2352 8.10897L17.1616 10.4258L12.375 10.5996L12.7252 6.0238Z" fill="#E8821E"/>
<path fill-rule="evenodd" clip-rule="evenodd" d="M13.6592 11.5843L13.017 12.9165L15.2936 12.3373L13.6592 11.5843Z" fill="#393939"/>
<path fill-rule="evenodd" clip-rule="evenodd" d="M20.6639 0.0579834L12.7252 6.02382L14.0677 2.78023L20.6639 0.0579834Z" fill="#E88F35"/>
<path fill-rule="evenodd" clip-rule="evenodd" d="M20.6639 0.0579224L21.7146 3.24359L21.1309 6.71887L21.5395 6.95055L20.9558 7.47184L21.4227 7.87729L20.7806 8.4565L21.1892 8.80403L20.2553 9.96245L15.8773 8.63027C13.737 6.93124 12.6863 6.06242 12.7252 6.02381C12.7641 5.9852 15.4104 3.99657 20.6639 0.0579224Z" fill="#8E5A30"/>
</g>
<defs>
<clipPath id="clip0_624_7048">
<rect width="22" height="19.4615" fill="white"/>
</clipPath>
</defs>
</svg>
