<svg width="74" height="74" viewBox="0 0 74 74" fill="none" xmlns="http://www.w3.org/2000/svg">
<g clip-path="url(#clip0_1099_5646)">
<path d="M65.7065 52.4214L56.2969 62.319C56.0924 62.534 55.8449 62.7055 55.5698 62.8226C55.2948 62.9398 54.9981 63.0002 54.6984 63H10.0924C9.87954 63 9.67134 62.939 9.49336 62.8245C9.31538 62.7101 9.17537 62.5471 9.09053 62.3556C9.0057 62.1642 8.97973 61.9526 9.01582 61.7469C9.05192 61.5411 9.1485 61.3502 9.2937 61.1976L18.7104 51.3C18.9144 51.0856 19.1611 50.9145 19.4352 50.7974C19.7093 50.6802 20.0051 50.6195 20.3041 50.619H64.9076C65.1204 50.619 65.3286 50.6801 65.5067 50.7945C65.6845 50.909 65.8245 51.072 65.9097 51.2634C65.9943 51.4549 66.0203 51.6664 65.9842 51.8722C65.9481 52.0779 65.8516 52.2688 65.7065 52.4214ZM56.2969 32.4905C56.0924 32.2755 55.8449 32.104 55.5698 31.9869C55.2948 31.8698 54.9981 31.8094 54.6984 31.8095H10.0924C9.87954 31.8095 9.67134 31.8705 9.49336 31.985C9.31538 32.0995 9.17537 32.2624 9.09053 32.4539C9.0057 32.6453 8.97973 32.8569 9.01582 33.0627C9.05192 33.2684 9.1485 33.4593 9.2937 33.6119L18.7104 43.5095C18.9144 43.724 19.1611 43.895 19.4352 44.0122C19.7093 44.1293 20.0051 44.19 20.3041 44.1905H64.9076C65.1204 44.1905 65.3286 44.1295 65.5067 44.015C65.6845 43.9005 65.8245 43.7376 65.9097 43.5461C65.9943 43.3547 66.0203 43.1431 65.9842 42.9373C65.9481 42.7316 65.8516 42.5407 65.7065 42.3881L56.2969 32.4905ZM10.0924 25.381H54.6984C54.9981 25.3811 55.2948 25.3207 55.5698 25.2036C55.8449 25.0864 56.0924 24.915 56.2969 24.7L65.7065 14.8024C65.8516 14.6498 65.9481 14.4589 65.9842 14.2531C66.0203 14.0474 65.9943 13.8358 65.9097 13.6444C65.8245 13.4529 65.6845 13.2899 65.5067 13.1755C65.3286 13.061 65.1204 13 64.9076 13H20.3041C20.0051 13.0005 19.7093 13.0612 19.4352 13.1783C19.1611 13.2955 18.9144 13.4665 18.7104 13.681L9.29613 23.5786C9.15107 23.731 9.05453 23.9218 9.01835 24.1272C8.98218 24.3327 9.00794 24.5441 9.09247 24.7355C9.17701 24.9269 9.31665 25.0898 9.49427 25.2045C9.67188 25.3191 9.87975 25.3805 10.0924 25.381Z" fill="url(#paint0_linear_1099_5646)"/>
</g>
<defs>
<linearGradient id="paint0_linear_1099_5646" x1="13.8115" y1="64.1916" x2="59.5755" y2="11.5921" gradientUnits="userSpaceOnUse">
<stop offset="0.08" stop-color="#9945FF"/>
<stop offset="0.3" stop-color="#8752F3"/>
<stop offset="0.5" stop-color="#5497D5"/>
<stop offset="0.6" stop-color="#43B4CA"/>
<stop offset="0.72" stop-color="#28E0B9"/>
<stop offset="0.97" stop-color="#19FB9B"/>
</linearGradient>
<clipPath id="clip0_1099_5646">
<rect width="57" height="50" fill="white" transform="translate(9 13)"/>
</clipPath>
</defs>
</svg>
