<svg width="512" height="512" viewBox="0 0 512 512" fill="none" xmlns="http://www.w3.org/2000/svg">
<path d="M256.5 29C384.918 29 489 133.103 489 261.5C489 389.918 384.918 494 256.5 494C128.103 494 24 389.908 24 261.5C24 133.103 128.103 29 256.5 29Z" fill="#F5AC37"/>
<path d="M265.069 277.916H353.415C355.298 277.916 356.188 277.916 356.324 275.447C357.046 266.459 357.046 257.42 356.324 248.422C356.324 246.675 355.455 245.953 353.561 245.953H177.737C175.561 245.953 174.975 246.675 174.975 248.715V274.578C174.975 277.916 174.975 277.916 178.459 277.916H265.069ZM346.457 215.726C346.708 215.067 346.708 214.345 346.457 213.696C344.982 210.484 343.235 207.419 341.205 204.542C338.15 199.624 334.551 195.094 330.45 191.024C328.514 188.565 326.275 186.358 323.764 184.485C311.188 173.782 296.237 166.207 280.166 162.398C272.058 160.578 263.771 159.709 255.464 159.783H177.434C175.258 159.783 174.965 160.651 174.965 162.545V214.125C174.965 216.302 174.965 216.887 177.727 216.887H345.411C345.411 216.887 346.865 216.595 347.158 215.726H346.447H346.457ZM346.457 308.142C343.988 307.87 341.498 307.87 339.029 308.142H177.884C175.708 308.142 174.975 308.142 174.975 311.051V361.481C174.975 363.803 174.975 364.389 177.884 364.389H252.283C255.841 364.661 259.398 364.41 262.882 363.667C273.679 362.893 284.299 360.55 294.427 356.689C298.11 355.412 301.667 353.749 305.025 351.75H306.04C323.481 342.679 337.648 328.429 346.583 310.936C346.583 310.936 347.598 308.739 346.457 308.163V308.142ZM145.774 390.535V389.667V355.81V344.332V310.183C145.774 308.289 145.774 308.006 143.451 308.006H111.917C110.17 308.006 109.448 308.006 109.448 305.684V278.073H143.159C145.042 278.073 145.774 278.073 145.774 275.604V248.286C145.774 246.538 145.774 246.11 143.451 246.11H111.917C110.17 246.11 109.448 246.11 109.448 243.787V218.216C109.448 216.615 109.448 216.186 111.771 216.186H143.012C145.188 216.186 145.774 216.186 145.774 213.424V135.101C145.774 132.779 145.774 132.193 148.683 132.193H257.661C265.571 132.507 273.428 133.375 281.202 134.808C297.22 137.769 312.611 143.492 326.683 151.664C336.016 157.156 344.605 163.79 352.254 171.427C358.008 177.402 363.198 183.868 367.801 190.752C372.373 197.73 376.171 205.19 379.153 212.985C379.519 215.015 381.465 216.385 383.495 216.04H409.505C412.843 216.04 412.843 216.04 412.989 219.242V243.075C412.989 245.398 412.121 245.984 409.787 245.984H389.731C387.701 245.984 387.115 245.984 387.262 248.6C388.057 257.451 388.057 266.334 387.262 275.185C387.262 277.654 387.262 277.947 390.034 277.947H412.979C413.993 279.255 412.979 280.563 412.979 281.881C413.125 283.566 413.125 285.271 412.979 286.956V304.543C412.979 307.012 412.257 307.745 410.07 307.745H382.606C380.691 307.379 378.829 308.603 378.389 310.507C371.85 327.509 361.387 342.753 347.87 354.973C342.931 359.42 337.742 363.605 332.322 367.465C326.505 370.813 320.845 374.297 314.881 377.059C303.906 381.998 292.397 385.639 280.585 387.951C269.369 389.96 257.996 390.87 246.581 390.713H145.732V390.567L145.774 390.535Z" fill="#FEFEFD"/>
</svg>
