<svg width="512" height="512" viewBox="0 0 512 512" fill="none" xmlns="http://www.w3.org/2000/svg">
<path d="M256.5 494C385.345 494 489 390.345 489 261.5C489 132.655 385.345 29 256.5 29C127.655 29 24 132.655 24 261.5C24 390.345 127.655 494 256.5 494Z" fill="#2775CA"/>
<path d="M319.998 298.334C319.998 264.427 299.789 252.802 259.372 247.959C230.503 244.083 224.729 236.333 224.729 222.769C224.729 209.204 234.353 200.488 253.598 200.488C270.92 200.488 280.544 206.3 285.355 220.832C286.318 223.738 289.205 225.675 292.092 225.675H307.487C311.337 225.675 314.224 222.769 314.224 218.895V217.926C310.374 196.612 293.052 180.143 270.92 178.206V154.956C270.92 151.08 268.033 148.173 263.222 147.204H248.787C244.937 147.204 242.05 150.11 241.087 154.956V177.237C212.218 181.113 193.935 200.488 193.935 224.708C193.935 256.678 213.181 269.27 253.598 274.116C280.544 278.959 289.205 284.771 289.205 300.273C289.205 315.774 275.731 326.43 257.448 326.43C232.426 326.43 223.766 315.772 220.879 301.24C219.918 297.366 217.031 295.427 214.144 295.427H197.783C193.935 295.427 191.048 298.334 191.048 302.209V303.179C194.896 327.397 210.294 344.835 242.05 349.681V372.931C242.05 376.805 244.937 379.711 249.748 380.681H264.183C268.033 380.681 270.92 377.774 271.883 372.931V349.681C300.752 344.835 319.998 324.491 319.998 298.334Z" fill="white"/>
<path d="M207.089 398.73C131.52 371.774 92.7659 288.012 120.864 213.877C135.396 173.44 167.368 142.632 207.089 128.19C210.965 126.266 212.902 123.377 212.902 118.562V105.084C212.902 101.232 210.965 98.3436 207.089 97.3823C206.12 97.3823 204.183 97.3823 203.213 98.3436C111.175 127.227 60.7943 224.469 89.8594 315.932C107.298 369.847 148.959 411.247 203.213 428.577C207.089 430.502 210.965 428.577 211.933 424.725C212.902 423.764 212.902 422.801 212.902 420.876V407.395C212.902 404.507 209.996 400.657 207.089 398.73ZM309.787 98.3436C305.911 96.4188 302.034 98.3436 301.067 102.195C300.098 103.159 300.098 104.12 300.098 106.047V119.525C300.098 123.377 303.004 127.227 305.911 129.154C381.48 156.11 420.234 239.872 392.136 314.007C377.604 354.444 345.632 385.252 305.911 399.694C302.034 401.619 300.098 404.507 300.098 409.323V422.801C300.098 426.653 302.034 429.541 305.911 430.502C306.88 430.502 308.817 430.502 309.787 429.541C401.825 400.658 452.206 303.415 423.14 211.952C405.701 157.074 363.071 115.674 309.787 98.3436Z" fill="white"/>
</svg>
