<svg width="512" height="512" viewBox="0 0 512 512" fill="none" xmlns="http://www.w3.org/2000/svg">
<path fill-rule="evenodd" clip-rule="evenodd" d="M97.5454 47.1316L6.37482 238.211C6.02789 238.922 5.91795 239.725 6.06108 240.502C6.20421 241.28 6.5929 241.991 7.1703 242.532L253.4 477.957C254.099 478.626 255.031 479 256 479C256.969 479 257.901 478.626 258.6 477.957L504.83 242.547C505.407 242.006 505.796 241.294 505.939 240.517C506.082 239.739 505.972 238.937 505.625 238.226L414.455 47.1463C414.16 46.5045 413.687 45.9609 413.092 45.5804C412.496 45.1998 411.803 44.9984 411.096 45.0003H100.933C100.223 44.9915 99.5248 45.188 98.9237 45.5662C98.3225 45.9443 97.8438 46.488 97.5454 47.1316Z" fill="#50AF95"/>
<path fill-rule="evenodd" clip-rule="evenodd" d="M287.741 257.277C285.968 257.41 276.808 257.956 256.377 257.956C240.126 257.956 228.588 257.469 224.54 257.277C161.738 254.519 114.862 243.601 114.862 230.529C114.862 217.458 161.738 206.555 224.54 203.752V246.404C228.647 246.699 240.407 247.393 256.657 247.393C276.158 247.393 285.924 246.581 287.682 246.419V203.781C350.35 206.57 397.123 217.487 397.123 230.529C397.123 243.571 350.365 254.489 287.682 257.263L287.741 257.277ZM287.741 199.37V161.203H375.199V103H137.081V161.203H224.525V199.355C153.45 202.616 100 216.676 100 233.524C100 250.373 153.45 264.418 224.525 267.693V390H287.726V267.649C358.638 264.389 412 250.343 412 233.51C412 216.676 358.683 202.63 287.726 199.355L287.741 199.37Z" fill="white"/>
</svg>
