<svg width="47" height="47" viewBox="0 0 47 47" fill="none" xmlns="http://www.w3.org/2000/svg">
<path d="M17.625 28.6406C18.8418 28.6406 19.8281 27.6543 19.8281 26.4375C19.8281 25.2207 18.8418 24.2344 17.625 24.2344C16.4082 24.2344 15.4219 25.2207 15.4219 26.4375C15.4219 27.6543 16.4082 28.6406 17.625 28.6406Z" fill="#49536E"/>
<path d="M29.375 28.6406C30.5918 28.6406 31.5781 27.6543 31.5781 26.4375C31.5781 25.2207 30.5918 24.2344 29.375 24.2344C28.1582 24.2344 27.1719 25.2207 27.1719 26.4375C27.1719 27.6543 28.1582 28.6406 29.375 28.6406Z" fill="#49536E"/>
<path d="M13.6597 14.6874C16.8436 13.6895 20.1637 13.194 23.5003 13.2187C26.8369 13.194 30.1569 13.6895 33.3409 14.6874" stroke="#5865F2" stroke-width="1.2" stroke-linecap="round" stroke-linejoin="round"/>
<path d="M33.3409 32.3125C30.1569 33.3104 26.8369 33.8059 23.5003 33.7812C20.1637 33.8059 16.8436 33.3104 13.6597 32.3125" stroke="#5865F2" stroke-width="1.2" stroke-linecap="round" stroke-linejoin="round"/>
<path d="M28.4567 33.4319L30.6782 37.8381C30.8212 38.1386 31.0643 38.3799 31.3658 38.5207C31.6673 38.6614 32.0085 38.6927 32.3306 38.6092C36.8286 37.5077 40.7208 35.5983 43.5481 33.1381C43.7613 32.9501 43.9161 32.7049 43.9942 32.4315C44.0723 32.1582 44.0704 31.8682 43.9888 31.596L37.7649 10.8131C37.7044 10.6005 37.5947 10.4049 37.4449 10.2423C37.295 10.0797 37.1091 9.95452 36.902 9.87682C35.1437 9.15542 33.3252 8.59022 31.4677 8.18775C31.1107 8.10958 30.7375 8.16557 30.4191 8.34504C30.1008 8.52452 29.8598 8.81491 29.7419 9.1608L28.2915 13.5487" stroke="#5865F2" stroke-width="1.2" stroke-linecap="round" stroke-linejoin="round"/>
<path d="M18.5429 33.4319L16.3214 37.8381C16.1785 38.1386 15.9354 38.3799 15.6338 38.5207C15.3323 38.6614 14.9912 38.6927 14.6691 38.6092C10.171 37.5077 6.27885 35.5983 3.4515 33.1381C3.23834 32.9501 3.08355 32.7049 3.00546 32.4315C2.92737 32.1582 2.92925 31.8682 3.01088 31.596L9.23471 10.8131C9.29528 10.6005 9.4049 10.4049 9.55476 10.2423C9.70463 10.0797 9.89055 9.95452 10.0976 9.87682C11.856 9.15542 13.6745 8.59022 15.532 8.18775C15.8889 8.10958 16.2622 8.16557 16.5805 8.34504C16.8988 8.52452 17.1399 8.81491 17.2578 9.1608L18.7081 13.5487" stroke="#5865F2" stroke-width="1.2" stroke-linecap="round" stroke-linejoin="round"/>
<path d="M17.625 28.6406C18.8418 28.6406 19.8281 27.6543 19.8281 26.4375C19.8281 25.2207 18.8418 24.2344 17.625 24.2344C16.4082 24.2344 15.4219 25.2207 15.4219 26.4375C15.4219 27.6543 16.4082 28.6406 17.625 28.6406Z" fill="#5865F2"/>
<path d="M29.375 28.6406C30.5918 28.6406 31.5781 27.6543 31.5781 26.4375C31.5781 25.2207 30.5918 24.2344 29.375 24.2344C28.1582 24.2344 27.1719 25.2207 27.1719 26.4375C27.1719 27.6543 28.1582 28.6406 29.375 28.6406Z" fill="#5865F2"/>
<path d="M13.6597 14.6874C16.8436 13.6895 20.1637 13.194 23.5003 13.2187C26.8369 13.194 30.1569 13.6895 33.3409 14.6874" stroke="#5865F2" stroke-width="1.2" stroke-linecap="round" stroke-linejoin="round"/>
<path d="M33.3409 32.3125C30.1569 33.3104 26.8369 33.8059 23.5003 33.7812C20.1637 33.8059 16.8436 33.3104 13.6597 32.3125" stroke="#5865F2" stroke-width="1.2" stroke-linecap="round" stroke-linejoin="round"/>
<path d="M28.4567 33.4319L30.6782 37.8381C30.8212 38.1386 31.0643 38.3799 31.3658 38.5207C31.6673 38.6614 32.0085 38.6927 32.3306 38.6092C36.8286 37.5077 40.7208 35.5983 43.5481 33.1381C43.7613 32.9501 43.9161 32.7049 43.9942 32.4315C44.0723 32.1582 44.0704 31.8682 43.9888 31.596L37.7649 10.8131C37.7044 10.6005 37.5947 10.4049 37.4449 10.2423C37.295 10.0797 37.1091 9.95452 36.902 9.87682C35.1437 9.15542 33.3252 8.59022 31.4677 8.18775C31.1107 8.10958 30.7375 8.16557 30.4191 8.34504C30.1008 8.52452 29.8598 8.81491 29.7419 9.1608L28.2915 13.5487" stroke="#5865F2" stroke-width="1.2" stroke-linecap="round" stroke-linejoin="round"/>
<path d="M18.5429 33.4319L16.3214 37.8381C16.1785 38.1386 15.9354 38.3799 15.6338 38.5207C15.3323 38.6614 14.9912 38.6927 14.6691 38.6092C10.171 37.5077 6.27885 35.5983 3.4515 33.1381C3.23834 32.9501 3.08355 32.7049 3.00546 32.4315C2.92737 32.1582 2.92925 31.8682 3.01088 31.596L9.23471 10.8131C9.29528 10.6005 9.4049 10.4049 9.55476 10.2423C9.70463 10.0797 9.89055 9.95452 10.0976 9.87682C11.856 9.15542 13.6745 8.59022 15.532 8.18775C15.8889 8.10958 16.2622 8.16557 16.5805 8.34504C16.8988 8.52452 17.1399 8.81491 17.2578 9.1608L18.7081 13.5487" stroke="#5865F2" stroke-width="1.2" stroke-linecap="round" stroke-linejoin="round"/>
</svg>
