<svg width="20" height="23" viewBox="0 0 20 23" fill="none" xmlns="http://www.w3.org/2000/svg">
<g clip-path="url(#clip0_1202_13553)">
<path d="M0.142822 7.41843C0.142822 6.43832 0.664742 5.53332 1.51045 5.04705L8.65331 0.939908C9.48776 0.460094 10.5122 0.460094 11.3466 0.939908L18.4895 5.04705C19.3352 5.53332 19.8571 6.43832 19.8571 7.41843V15.5816C19.8571 16.5617 19.3352 17.4667 18.4895 17.953L11.3466 22.0601C10.5122 22.5399 9.48776 22.5399 8.65331 22.0601L1.51045 17.953C0.664742 17.4667 0.142822 16.5617 0.142822 15.5816V7.41843Z" stroke="#87BB5F"/>
<path d="M10.9375 9.53751L6.8125 13.6625L4.75 11.6" stroke="#87BB5F" stroke-linecap="round" stroke-linejoin="round"/>
<path d="M15.25 9.53751L11.125 13.6625L10.0281 12.5656" stroke="#87BB5F" stroke-linecap="round" stroke-linejoin="round"/>
</g>
<defs>
<clipPath id="clip0_1202_13553">
<rect width="20" height="23" fill="white"/>
</clipPath>
</defs>
</svg>
