<svg width="60" height="60" viewBox="0 0 60 60" fill="none" xmlns="http://www.w3.org/2000/svg">
<path d="M18.75 46.875C22.8921 46.875 26.25 43.5171 26.25 39.375C26.25 35.2329 22.8921 31.875 18.75 31.875C14.6079 31.875 11.25 35.2329 11.25 39.375C11.25 43.5171 14.6079 46.875 18.75 46.875Z" stroke="#A3C987" stroke-width="1.22" stroke-linecap="round" stroke-linejoin="round"/>
<path d="M7.5 52.5C8.80988 50.7535 10.5084 49.3359 12.4611 48.3596C14.4137 47.3833 16.5669 46.875 18.75 46.875C20.9331 46.875 23.0863 47.3833 25.0389 48.3596C26.9916 49.3359 28.6901 50.7535 30 52.5" stroke="#A3C987" stroke-width="1.22" stroke-linecap="round" stroke-linejoin="round"/>
<path d="M18.75 22.5C22.8921 22.5 26.25 19.1421 26.25 15C26.25 10.8579 22.8921 7.5 18.75 7.5C14.6079 7.5 11.25 10.8579 11.25 15C11.25 19.1421 14.6079 22.5 18.75 22.5Z" stroke="#A3C987" stroke-width="1.22" stroke-linecap="round" stroke-linejoin="round"/>
<path d="M7.5 28.125C8.80988 26.3785 10.5084 24.9609 12.4611 23.9846C14.4137 23.0083 16.5669 22.5 18.75 22.5C20.9331 22.5 23.0863 23.0083 25.0389 23.9846C26.9916 24.9609 28.6901 26.3785 30 28.125" stroke="#A3C987" stroke-width="1.22" stroke-linecap="round" stroke-linejoin="round"/>
<path d="M41.25 46.875C45.3921 46.875 48.75 43.5171 48.75 39.375C48.75 35.2329 45.3921 31.875 41.25 31.875C37.1079 31.875 33.75 35.2329 33.75 39.375C33.75 43.5171 37.1079 46.875 41.25 46.875Z" stroke="#A3C987" stroke-width="1.22" stroke-linecap="round" stroke-linejoin="round"/>
<path d="M30 52.5C31.3099 50.7535 33.0084 49.3359 34.9611 48.3596C36.9137 47.3833 39.0669 46.875 41.25 46.875C43.4331 46.875 45.5863 47.3833 47.5389 48.3596C49.4916 49.3359 51.1901 50.7535 52.5 52.5" stroke="#A3C987" stroke-width="1.22" stroke-linecap="round" stroke-linejoin="round"/>
<path d="M41.25 22.5C45.3921 22.5 48.75 19.1421 48.75 15C48.75 10.8579 45.3921 7.5 41.25 7.5C37.1079 7.5 33.75 10.8579 33.75 15C33.75 19.1421 37.1079 22.5 41.25 22.5Z" stroke="#A3C987" stroke-width="1.22" stroke-linecap="round" stroke-linejoin="round"/>
<path d="M30 28.125C31.3099 26.3785 33.0084 24.9609 34.9611 23.9846C36.9137 23.0083 39.0669 22.5 41.25 22.5C43.4331 22.5 45.5863 23.0083 47.5389 23.9846C49.4916 24.9609 51.1901 26.3785 52.5 28.125" stroke="#A3C987" stroke-width="1.22" stroke-linecap="round" stroke-linejoin="round"/>
</svg>
