<svg width="59" height="59" viewBox="0 0 59 59" fill="none" xmlns="http://www.w3.org/2000/svg">
<path d="M29.5 36.875C34.5914 36.875 38.7188 32.7476 38.7188 27.6562C38.7188 22.5649 34.5914 18.4375 29.5 18.4375C24.4086 18.4375 20.2812 22.5649 20.2812 27.6562C20.2812 32.7476 24.4086 36.875 29.5 36.875Z" stroke="#78BCEE" stroke-width="1.2" stroke-miterlimit="10"/>
<path d="M14.7048 45.9558C16.092 43.2235 18.2088 40.9286 20.8204 39.3255C23.4321 37.7225 26.4366 36.874 29.5009 36.874C32.5653 36.874 35.5698 37.7225 38.1814 39.3255C40.7931 40.9286 42.9098 43.2235 44.297 45.9558" stroke="#78BCEE" stroke-width="1.2" stroke-linecap="round" stroke-linejoin="round"/>
<path d="M40.5625 12.9062H51.625" stroke="#78BCEE" stroke-width="1.2" stroke-linecap="round" stroke-linejoin="round"/>
<path d="M46.0938 7.375V18.4375" stroke="#78BCEE" stroke-width="1.2" stroke-linecap="round" stroke-linejoin="round"/>
<path d="M51.3484 26.0199C51.5348 27.1705 51.6273 28.3344 51.625 29.5C51.625 33.8759 50.3274 38.1536 47.8963 41.792C45.4651 45.4304 42.0097 48.2663 37.9669 49.9408C33.9241 51.6154 29.4755 52.0536 25.1836 51.1999C20.8918 50.3462 16.9495 48.239 13.8553 45.1447C10.761 42.0505 8.65383 38.1082 7.80014 33.8164C6.94644 29.5246 7.38459 25.076 9.05918 21.0331C10.7338 16.9903 13.5696 13.5349 17.208 11.1037C20.8465 8.67262 25.1241 7.37501 29.5 7.37501C30.6656 7.37272 31.8295 7.46522 32.9801 7.65157" stroke="#78BCEE" stroke-width="1.2" stroke-linecap="round" stroke-linejoin="round"/>
</svg>
