<svg width="60" height="60" viewBox="0 0 60 60" fill="none" xmlns="http://www.w3.org/2000/svg">
<path d="M30 37.5C35.1777 37.5 39.375 33.3027 39.375 28.125C39.375 22.9473 35.1777 18.75 30 18.75C24.8223 18.75 20.625 22.9473 20.625 28.125C20.625 33.3027 24.8223 37.5 30 37.5Z" stroke="#F69783" stroke-width="1.22" stroke-linecap="round" stroke-linejoin="round"/>
<path d="M48.75 9.375H11.25C10.2145 9.375 9.375 10.2145 9.375 11.25V48.75C9.375 49.7855 10.2145 50.625 11.25 50.625H48.75C49.7855 50.625 50.625 49.7855 50.625 48.75V11.25C50.625 10.2145 49.7855 9.375 48.75 9.375Z" stroke="#F69783" stroke-width="1.22" stroke-linecap="round" stroke-linejoin="round"/>
<path d="M13.5476 50.6253C14.3973 46.897 16.488 43.5679 19.4772 41.1833C22.4664 38.7987 26.1769 37.5 30.0007 37.5C33.8246 37.5 37.535 38.7987 40.5243 41.1833C43.5135 43.5679 45.6042 46.897 46.4539 50.6253" stroke="#F69783" stroke-width="1.22" stroke-linecap="round" stroke-linejoin="round"/>
</svg>
