<svg width="60" height="60" viewBox="0 0 60 60" fill="none" xmlns="http://www.w3.org/2000/svg">
<path d="M50.625 16.875H9.375C8.33947 16.875 7.5 17.7145 7.5 18.75V48.75C7.5 49.7855 8.33947 50.625 9.375 50.625H50.625C51.6605 50.625 52.5 49.7855 52.5 48.75V18.75C52.5 17.7145 51.6605 16.875 50.625 16.875Z" stroke="#F69783" stroke-width="1.22" stroke-linecap="round" stroke-linejoin="round"/>
<path d="M39.375 50.625V13.125C39.375 12.1304 38.9799 11.1766 38.2766 10.4733C37.5734 9.77009 36.6196 9.375 35.625 9.375H24.375C23.3804 9.375 22.4266 9.77009 21.7234 10.4733C21.0201 11.1766 20.625 12.1304 20.625 13.125V50.625" stroke="#F69783" stroke-width="1.22" stroke-linecap="round" stroke-linejoin="round"/>
</svg>
