<svg width="53" height="53" viewBox="0 0 53 53" fill="none" xmlns="http://www.w3.org/2000/svg">
<path d="M19.875 19.875H33.125" stroke="#85A8BE" stroke-width="1.2" stroke-linecap="round" stroke-linejoin="round"/>
<path d="M19.875 26.5H33.125" stroke="#85A8BE" stroke-width="1.2" stroke-linecap="round" stroke-linejoin="round"/>
<path d="M19.875 33.125H26.5" stroke="#85A8BE" stroke-width="1.2" stroke-linecap="round" stroke-linejoin="round"/>
<path d="M32.4418 44.7188H9.9375C9.49824 44.7188 9.07696 44.5443 8.76635 44.2336C8.45575 43.923 8.28125 43.5018 8.28125 43.0625V9.9375C8.28125 9.49824 8.45575 9.07696 8.76635 8.76635C9.07696 8.45575 9.49824 8.28125 9.9375 8.28125H43.0625C43.5018 8.28125 43.923 8.45575 44.2336 8.76635C44.5443 9.07696 44.7188 9.49824 44.7188 9.9375V32.4418C44.7195 32.6569 44.6778 32.87 44.5961 33.0689C44.5144 33.2679 44.3943 33.4487 44.2426 33.6012L33.6012 44.2426C33.4487 44.3943 33.2679 44.5144 33.0689 44.5961C32.87 44.6778 32.6569 44.7195 32.4418 44.7188V44.7188Z" stroke="#85A8BE" stroke-width="1.2" stroke-linecap="round" stroke-linejoin="round"/>
<path d="M44.5738 33.125H33.125V44.5738" stroke="#85A8BE" stroke-width="1.2" stroke-linecap="round" stroke-linejoin="round"/>
</svg>
