<?xml version="1.0" encoding="UTF-8"?>
<svg xmlns:xodm="http://www.corel.com/coreldraw/odm/2003" xmlns="http://www.w3.org/2000/svg" xmlns:xlink="http://www.w3.org/1999/xlink" version="1.1" id="Layer_1" x="0px" y="0px" viewBox="0 0 2500 2500" style="enable-background:new 0 0 2500 2500;" xml:space="preserve">
<style type="text/css">
	.st0{fill:#FFFFFF;}
	.st1{fill-rule:evenodd;clip-rule:evenodd;fill:#E84142;}
</style>
<g id="Layer_x0020_1">
	<g id="_1354098440048">
		<rect x="476.9" y="427.8" class="st0" width="1544.6" height="1404.8"></rect>
		<path class="st1" d="M2500,1250c0,690.4-559.6,1250-1250,1250S0,1940.4,0,1250S559.6,0,1250,0S2500,559.6,2500,1250z     M895.8,1747.4H653.2c-51,0-76.2,0-91.5-9.8c-16.6-10.8-26.7-28.6-28-48.2c-0.9-18.1,11.7-40.2,36.8-84.4l599-1055.8    c25.5-44.8,38.4-67.2,54.7-75.5c17.5-8.9,38.4-8.9,55.9,0c16.3,8.3,29.2,30.7,54.7,75.5l123.1,215l0.6,1.1    c27.5,48.1,41.5,72.5,47.6,98.1c6.8,27.9,6.8,57.4,0,85.4c-6.1,25.8-20,50.4-47.9,99.2L1143.6,1604l-0.8,1.4    c-27.7,48.5-41.8,73.1-61.2,91.6c-21.2,20.3-46.7,35-74.6,43.3C981.5,1747.4,952.9,1747.4,895.8,1747.4L895.8,1747.4z     M1508.4,1747.4H1856c51.3,0,77.1,0,92.4-10.1c16.6-10.8,27-28.9,27.9-48.5c0.9-17.5-11.4-38.8-35.6-80.4    c-0.8-1.4-1.7-2.9-2.5-4.3l-174.1-297.9l-2-3.4c-24.5-41.4-36.8-62.3-52.7-70.3c-17.5-8.9-38.1-8.9-55.6,0    c-16,8.3-28.9,30.1-54.3,74l-173.5,297.9l-0.6,1c-25.4,43.8-38.1,65.8-37.2,83.7c1.2,19.7,11.4,37.8,27.9,48.5    C1431.3,1747.4,1457.1,1747.4,1508.4,1747.4L1508.4,1747.4z"></path>
	</g>
</g>
</svg>
